<svg width="393" height="533" viewBox="0 0 393 533" fill="none" xmlns="http://www.w3.org/2000/svg">
<path d="M244.789 20.1589C233.699 1.42054 211.759 0.547247 211.759 0.547247C211.759 0.547247 190.379 -2.18675 176.664 26.3521C163.881 52.9526 146.238 69.6359 173.824 75.8629L178.807 60.3543L181.892 77.0175C185.82 77.3 189.76 77.3674 193.695 77.2192C223.237 76.2655 251.372 77.4983 250.466 66.8973C249.262 52.8049 255.459 38.189 244.789 20.1589Z" fill="#2F2E41"/>
<path d="M208.553 139.318C207.061 138.082 205.877 136.686 205.086 135.227C204.295 133.769 203.916 132.283 203.975 130.876C204.034 129.468 204.53 128.173 205.429 127.081C206.327 125.989 207.605 125.127 209.173 124.555L199.694 61.463L224.58 62.1999L229.07 130.562C230.972 132.906 231.791 135.465 231.372 137.754C230.952 140.044 229.324 141.904 226.795 142.984C224.266 144.063 221.012 144.286 217.65 143.611C214.288 142.935 211.051 141.408 208.553 139.318Z" fill="#FFB6B6"/>
<path d="M39.0217 413.083C47.2619 413.083 53.9419 406.403 53.9419 398.162C53.9419 389.922 47.2619 383.242 39.0217 383.242C30.7815 383.242 24.1016 389.922 24.1016 398.162C24.1016 406.403 30.7815 413.083 39.0217 413.083Z" fill="#F0F0F0"/>
<path d="M11.4078 415.753C17.1882 415.753 21.8742 411.067 21.8742 405.287C21.8742 399.506 17.1882 394.82 11.4078 394.82C5.62736 394.82 0.941406 399.506 0.941406 405.287C0.941406 411.067 5.62736 415.753 11.4078 415.753Z" fill="#F0F0F0"/>
<path d="M216.807 304.438C247.735 304.438 272.807 298.617 272.807 291.438C272.807 284.258 247.735 278.438 216.807 278.438C185.879 278.438 160.807 284.258 160.807 291.438C160.807 298.617 185.879 304.438 216.807 304.438Z" fill="#3F3D56"/>
<path d="M261.733 420.944L207.732 424.938L207.88 426.932L261.88 422.938L261.733 420.944Z" fill="#CACACA"/>
<path d="M172.29 414.06L171.326 415.812L191.326 426.813L192.29 425.06L172.29 414.06Z" fill="#CACACA"/>
<path d="M228.807 406.938H210.807V408.938H228.807V406.938Z" fill="#CACACA"/>
<path d="M163.805 532.003L161.809 531.867L176.809 302.867L178.805 303.003L163.805 532.003Z" fill="#CACACA"/>
<path d="M237.809 531.989L227.809 320.989L229.807 320.891L239.807 531.891L237.809 531.989Z" fill="#CACACA"/>
<path d="M257.804 301.851L255.811 302.016L274.81 532.016L276.804 531.851L257.804 301.851Z" fill="#CACACA"/>
<path d="M194.807 531.962L192.807 531.914L198.807 320.914L200.807 320.962L194.807 531.962Z" fill="#CACACA"/>
<path d="M185.235 399.693L171.953 407.559L135.289 360.072L154.893 348.461L185.235 399.693Z" fill="#FFB6B6"/>
<path d="M196.249 410.555L153.422 435.921L153.101 435.379C150.483 430.958 149.728 425.678 151.002 420.701C152.276 415.723 155.476 411.456 159.897 408.837L159.898 408.836L186.055 393.344L196.249 410.555Z" fill="#2F2E41"/>
<path d="M249.379 399.693L262.661 407.559L299.325 360.072L279.722 348.461L249.379 399.693Z" fill="#FFB6B6"/>
<path d="M248.559 393.344L274.717 408.836L274.718 408.837C279.138 411.456 282.338 415.723 283.612 420.701C284.887 425.678 284.132 430.958 281.513 435.379L281.193 435.921L238.365 410.555L248.559 393.344Z" fill="#2F2E41"/>
<path d="M258.506 218.5C258.506 218.5 215.171 249.023 172.989 221.479L172.329 240.68C172.329 240.68 81.9747 279 96.807 308.936C111.639 338.872 142.807 369.936 142.807 369.936L159.807 355.936L140.807 307.936L192.489 286.041L237.544 286.268L300.371 311.697L270.371 356.697L296.807 364.936C296.807 364.936 359.807 306.936 346.307 290.436C335.486 277.211 270.713 247.558 270.713 247.558L258.506 218.5Z" fill="#2F2E41"/>
<path d="M273.588 106.529L236.079 94.0953L226.808 80.9375H199.808L191.809 94.3035L157.028 106.529C155.132 107.071 153.503 108.294 152.453 109.964C151.404 111.634 151.008 113.633 151.342 115.576L166.808 242.938L191.808 240.938C191.808 240.938 225.49 267.219 245.808 236.938L246.893 221.667L267.808 241.938L279.274 115.576C279.608 113.633 279.212 111.634 278.163 109.964C277.113 108.294 275.484 107.071 273.588 106.529Z" fill="#34D399"/>
<path d="M214.307 75.8516C230.323 75.8516 243.307 62.8678 243.307 46.8516C243.307 30.8353 230.323 17.8516 214.307 17.8516C198.29 17.8516 185.307 30.8353 185.307 46.8516C185.307 62.8678 198.29 75.8516 214.307 75.8516Z" fill="#FFB8B8"/>
<path d="M240.886 17.354L219.21 6L189.277 10.645L183.084 37.998L198.5 37.405L202.807 27.356V37.24L209.921 36.966L214.049 20.967L216.63 37.998L241.919 37.482L240.886 17.354Z" fill="#2F2E41"/>
<path opacity="0.2" d="M168.988 134L191.488 221.991C191.488 221.991 180.988 145 168.988 134Z" fill="black"/>
<path opacity="0.2" d="M240.023 165.484C240.023 165.484 227.132 165.611 218.839 163.3C210.545 160.989 189.016 151.269 189.016 151.269C189.016 151.269 225.633 172.453 240.023 165.484Z" fill="black"/>
<path opacity="0.2" d="M236.125 222.991L258.625 135C246.625 146 236.125 222.991 236.125 222.991Z" fill="black"/>
<path d="M241.364 299.861C242.577 299.221 243.634 298.323 244.461 297.23C245.289 296.137 245.867 294.876 246.154 293.536C246.442 292.196 246.432 290.809 246.125 289.473C245.819 288.136 245.223 286.884 244.38 285.803L264.807 229.936L249.171 221.977L230.631 284.519C228.909 286.055 227.811 288.17 227.544 290.463C227.277 292.755 227.86 295.066 229.183 296.957C230.506 298.848 232.477 300.189 234.722 300.724C236.967 301.259 239.33 300.952 241.364 299.861Z" fill="#FFB6B6"/>
<path d="M261.101 128.5L238.312 227.602C238.092 228.626 238.283 229.695 238.843 230.58C239.403 231.465 240.287 232.095 241.307 232.335L263.254 235.497C263.794 235.624 264.355 235.638 264.901 235.536C265.446 235.435 265.965 235.221 266.423 234.909C266.881 234.596 267.27 234.192 267.564 233.721C267.857 233.25 268.05 232.724 268.129 232.175L274.807 128.933L261.101 128.5Z" fill="#34D399"/>
<path d="M189.249 301.861C188.037 301.221 186.979 300.323 186.152 299.23C185.324 298.137 184.746 296.876 184.459 295.536C184.171 294.196 184.181 292.809 184.488 291.472C184.794 290.136 185.39 288.884 186.233 287.803L165.807 231.936L181.442 223.977L199.982 286.519C201.704 288.055 202.802 290.17 203.069 292.463C203.336 294.755 202.753 297.066 201.43 298.957C200.107 300.848 198.136 302.189 195.891 302.724C193.646 303.259 191.283 302.952 189.249 301.861Z" fill="#FFB6B6"/>
<path d="M169.512 130.5L192.302 229.602C192.521 230.626 192.331 231.695 191.771 232.58C191.211 233.465 190.326 234.095 189.306 234.335L167.359 237.497C166.819 237.624 166.258 237.638 165.713 237.536C165.167 237.435 164.649 237.221 164.19 236.909C163.732 236.596 163.343 236.192 163.05 235.721C162.756 235.25 162.563 234.724 162.484 234.175L153.807 130.933L169.512 130.5Z" fill="#34D399"/>
<path d="M359.805 428.472L360.552 427.406C373.389 436.419 382.752 456.466 388.383 486.992C390.958 501.249 392.503 515.673 393.006 530.153L391.704 530.178C391.689 529.374 389.79 449.525 359.805 428.472Z" fill="#E4E4E4"/>
<path d="M361.758 486.081L362.506 485.016C375.886 494.41 376.7 528.398 376.728 529.84L375.426 529.865C375.419 529.519 374.598 495.097 361.758 486.081Z" fill="#E4E4E4"/>
<path d="M357.511 428.022C361.107 428.022 364.022 425.107 364.022 421.511C364.022 417.915 361.107 415 357.511 415C353.915 415 351 417.915 351 421.511C351 425.107 353.915 428.022 357.511 428.022Z" fill="#E4E4E4"/>
<path d="M355.621 484.593C359.217 484.593 362.132 481.678 362.132 478.082C362.132 474.485 359.217 471.57 355.621 471.57C352.025 471.57 349.109 474.485 349.109 478.082C349.109 481.678 352.025 484.593 355.621 484.593Z" fill="#E4E4E4"/>
<path d="M384.857 419C386.926 423.643 387.609 428.785 386.822 433.807C386.036 438.829 383.815 443.516 380.425 447.305C378.356 442.662 377.674 437.52 378.46 432.498C379.246 427.476 381.468 422.788 384.857 419Z" fill="#E4E4E4"/>
<path d="M345 442.828C349.932 441.6 355.115 441.824 359.923 443.473C364.731 445.122 368.96 448.126 372.099 452.124C367.167 453.352 361.985 453.129 357.177 451.479C352.368 449.83 348.14 446.826 345 442.828Z" fill="#E4E4E4"/>
<path d="M348.402 495.009C351.86 494.148 355.492 494.304 358.862 495.46C362.232 496.616 365.196 498.722 367.397 501.524C363.94 502.385 360.307 502.228 356.937 501.072C353.567 499.916 350.603 497.811 348.402 495.009Z" fill="#E4E4E4"/>
</svg>
