<svg width="720" height="720" viewBox="0 0 720 720" fill="none" xmlns="http://www.w3.org/2000/svg">
<g clip-path="url(#clip0_645_8840)">
<path d="M720.002 360.003C720.126 444.981 690.067 527.243 635.184 592.121C633.191 594.488 631.161 596.821 629.093 599.134C604.759 626.501 576.413 650.017 545.023 668.879C537.823 673.201 530.465 677.275 522.95 681.099C522.19 681.485 521.418 681.871 520.658 682.245C519.749 682.706 518.827 683.154 517.905 683.603C498.887 692.912 479.077 700.509 458.711 706.303C456.593 706.903 454.471 707.484 452.346 708.047C425.554 715.135 398.033 719.102 370.331 719.868C368.886 719.905 367.466 719.93 366.096 719.955C365.61 719.968 365.137 719.98 364.663 719.98C363.106 719.992 361.563 720.005 360.004 720.005C330.81 720.027 301.722 716.501 273.38 709.505C270.54 708.807 267.712 708.072 264.897 707.3C250.068 703.251 235.517 698.246 221.336 692.315C213.862 689.201 206.52 685.841 199.312 682.237C197.68 681.415 196.048 680.593 194.441 679.746C193.756 679.41 193.083 679.046 192.411 678.7C153.992 658.421 119.539 631.39 90.7015 598.9C88.7085 596.67 86.7525 594.4 84.8215 592.124C53.0479 554.451 29.3468 510.657 15.1862 463.452C1.02567 416.248 -3.29283 366.639 2.49815 317.698C8.28913 268.756 24.0663 221.525 48.8525 178.929C73.6387 136.333 106.906 99.2793 146.595 70.0626C148.638 68.5556 150.695 67.0626 152.774 65.6026L154.007 64.7436C190.559 39.1399 231.585 20.6125 274.962 10.1206C277.428 9.51059 279.894 8.9376 282.385 8.4016C329.369 -1.87438 377.925 -2.72412 425.24 5.9016C427.719 6.3626 430.198 6.83559 432.664 7.34659C475.652 16.1641 516.653 32.8134 553.619 56.4636C554.441 56.9866 555.263 57.5096 556.085 58.0576C557.742 59.1286 559.398 60.2246 561.03 61.3336C609.997 94.254 650.111 138.718 677.835 190.804C705.559 242.89 720.04 300.998 720.002 360.003Z" fill="#535353" fill-opacity="0.14"/>
<path d="M269.069 546.244L154.006 556.459L152.773 556.571V65.6019L154.006 64.7429C177.987 47.9697 203.927 34.1903 231.25 23.7109L237.133 104.803L237.669 112.227L243.486 192.648L245.28 217.387L268.857 543.38L269.069 546.244Z" fill="#D6D6E3" fill-opacity="0.18"/>
<path d="M553.618 56.4568C554.44 56.9798 555.262 57.5028 556.084 58.0508V556.57L553.618 556.346L439.801 546.246L440.013 543.381L463.594 217.389L465.388 192.65L471.205 112.229L471.741 104.8L477.907 19.7578C504.498 28.9758 529.91 41.294 553.619 56.4578L553.618 56.4568Z" fill="#D6D6E3" fill-opacity="0.18"/>
<path d="M553.613 56.4531V563.366C553.613 573.095 546.913 581.005 538.665 581.005H168.953C162.127 581.005 156.334 575.574 154.578 568.162C154.194 566.591 154.002 564.979 154.005 563.362V64.7331L152.772 65.5921C150.692 67.0491 148.636 68.5441 146.593 70.0521V563.366C146.483 570.756 149.243 577.901 154.293 583.297C156.941 586.069 160.29 588.073 163.984 589.097C165.604 589.538 167.275 589.76 168.954 589.757H538.669C540.352 589.759 542.028 589.537 543.652 589.097C553.592 586.419 561.029 575.905 561.029 563.361V61.3241C559.397 60.2151 557.74 59.1241 556.084 58.0481C555.261 57.4991 554.439 56.9761 553.613 56.4531Z" fill="#D6D6E3" fill-opacity="0.18"/>
<path d="M557.327 104.805H150.301V112.228H557.327V104.805Z" fill="#D6D6E3" fill-opacity="0.18"/>
<path d="M274.961 10.1174C277.427 9.50743 279.894 8.93444 282.385 8.39844V209.958H274.961V10.1174Z" fill="#D6D6E3" fill-opacity="0.18"/>
<path d="M425.238 5.89844C427.717 6.35944 430.196 6.83244 432.662 7.34344V209.968H425.238V5.89844Z" fill="#D6D6E3" fill-opacity="0.18"/>
<path d="M603.716 543.375H116.272C107.412 543.375 98.914 546.895 92.6486 553.16C86.3832 559.426 82.8633 567.923 82.8633 576.784C82.8633 585.645 86.3832 594.142 92.6486 600.408C98.914 606.673 107.412 610.193 116.272 610.193H603.716C608.462 610.194 613.153 609.182 617.476 607.224C621.799 605.266 625.655 602.408 628.784 598.84C630.199 597.23 631.457 595.489 632.541 593.64C633.382 592.221 634.111 590.738 634.721 589.206C636.756 584.138 637.517 578.648 636.936 573.218C636.356 567.788 634.452 562.582 631.392 558.059C628.333 553.535 624.21 549.832 619.385 547.272C614.561 544.712 609.183 543.375 603.721 543.378L603.716 543.375Z" fill="#D6D6E3" fill-opacity="0.18"/>
<path d="M557.325 192.648H152.773V217.391H557.325V192.648Z" fill="#D6D6E3" fill-opacity="0.18"/>
<path d="M351.336 185.219H358.759C360.546 185.219 362.316 185.571 363.967 186.255C365.618 186.939 367.118 187.941 368.382 189.205C369.646 190.469 370.648 191.969 371.332 193.62C372.016 195.272 372.368 197.042 372.368 198.829H337.727C337.727 195.219 339.16 191.758 341.713 189.206C344.265 186.654 347.726 185.219 351.336 185.219Z" fill="#D6D6E3" fill-opacity="0.18"/>
<path d="M635.182 592.117C624.361 604.939 612.656 616.988 600.154 628.177H119.848C107.346 616.988 95.6418 604.939 84.8203 592.117H635.182Z" fill="#3F3D56"/>
<path d="M400.21 467.219H319.341C318.905 467.215 318.472 467.282 318.058 467.419C317.181 467.691 316.413 468.237 315.869 468.977C315.324 469.716 315.03 470.611 315.031 471.53V599.285H404.531V471.529C404.531 470.962 404.418 470.401 404.201 469.877C403.983 469.354 403.665 468.879 403.263 468.478C402.862 468.078 402.386 467.761 401.862 467.545C401.338 467.329 400.777 467.218 400.21 467.219ZM369.604 530.249C369.607 532.321 368.924 534.336 367.661 535.979C366.456 537.573 364.781 538.749 362.872 539.341C360.963 539.933 358.917 539.911 357.021 539.278C355.125 538.646 353.476 537.434 352.305 535.814C351.135 534.194 350.502 532.248 350.496 530.249V515.426C350.496 512.892 351.503 510.462 353.295 508.67C355.086 506.878 357.517 505.871 360.051 505.871C362.585 505.871 365.015 506.878 366.807 508.67C368.599 510.462 369.605 512.892 369.605 515.426L369.604 530.249Z" fill="#2F2E41"/>
<path d="M314.758 595.195V607.515C314.758 608.153 315.01 608.766 315.459 609.219C315.909 609.672 316.52 609.928 317.158 609.932H402.399C403.036 609.926 403.646 609.669 404.095 609.216C404.544 608.764 404.797 608.153 404.799 607.515V595.195H314.758Z" fill="#3F3D56"/>
<path d="M534.123 267.844H188.449C185.479 267.847 182.631 269.028 180.53 271.128C178.429 273.227 177.245 276.073 177.238 279.044V512.307C177.241 515.279 178.423 518.13 180.525 520.231C182.626 522.333 185.477 523.515 188.449 523.518H534.123C537.096 523.515 539.946 522.333 542.048 520.231C544.15 518.13 545.332 515.279 545.334 512.307V279.043C545.327 276.073 544.144 273.226 542.042 271.127C539.941 269.028 537.093 267.847 534.123 267.844Z" fill="#3F3D56"/>
<path d="M531.23 275.945H191.324C189.734 275.947 188.21 276.581 187.087 277.706C185.963 278.83 185.332 280.355 185.332 281.945V509.434C185.334 511.023 185.967 512.545 187.09 513.668C188.213 514.791 189.736 515.423 191.324 515.425H531.23C532.819 515.423 534.341 514.791 535.465 513.668C536.588 512.545 537.22 511.022 537.222 509.433V281.949C537.222 280.36 536.591 278.835 535.468 277.71C534.345 276.585 532.821 275.952 531.231 275.949L531.23 275.945Z" fill="#515151"/>
<path d="M468.674 609.727L465.535 594.816C465.404 594.209 465.124 593.643 464.719 593.172C464.315 592.7 463.799 592.337 463.218 592.116C462.798 591.951 462.35 591.867 461.898 591.867H265.941C265.489 591.867 265.041 591.951 264.621 592.116C264.04 592.337 263.524 592.7 263.12 593.172C262.715 593.643 262.435 594.209 262.304 594.816L259.165 609.727C259.052 610.268 259.06 610.828 259.19 611.366C259.32 611.903 259.569 612.405 259.917 612.834C260.265 613.264 260.705 613.61 261.204 613.848C261.703 614.086 262.249 614.21 262.802 614.211H465.024C465.579 614.214 466.127 614.091 466.628 613.851C467.128 613.612 467.568 613.262 467.914 612.828C468.263 612.4 468.512 611.9 468.644 611.364C468.775 610.828 468.785 610.268 468.674 609.727Z" fill="#2F2E41"/>
<path d="M273.119 594.555H267.867C267.597 594.555 267.379 594.773 267.379 595.043V597.804C267.379 598.073 267.597 598.292 267.867 598.292H273.119C273.388 598.292 273.607 598.073 273.607 597.804V595.043C273.607 594.773 273.388 594.555 273.119 594.555Z" fill="#3F3D56"/>
<path d="M285.572 594.555H280.32C280.051 594.555 279.832 594.773 279.832 595.043V597.804C279.832 598.073 280.051 598.292 280.32 598.292H285.572C285.842 598.292 286.06 598.073 286.06 597.804V595.043C286.06 594.773 285.842 594.555 285.572 594.555Z" fill="#3F3D56"/>
<path d="M298.029 594.555H292.777C292.508 594.555 292.289 594.773 292.289 595.043V597.804C292.289 598.073 292.508 598.292 292.777 598.292H298.029C298.299 598.292 298.517 598.073 298.517 597.804V595.043C298.517 594.773 298.299 594.555 298.029 594.555Z" fill="#3F3D56"/>
<path d="M310.486 594.555H305.234C304.965 594.555 304.746 594.773 304.746 595.043V597.804C304.746 598.073 304.965 598.292 305.234 598.292H310.486C310.756 598.292 310.974 598.073 310.974 597.804V595.043C310.974 594.773 310.756 594.555 310.486 594.555Z" fill="#3F3D56"/>
<path d="M322.943 594.555H317.691C317.422 594.555 317.203 594.773 317.203 595.043V597.804C317.203 598.073 317.422 598.292 317.691 598.292H322.943C323.213 598.292 323.431 598.073 323.431 597.804V595.043C323.431 594.773 323.213 594.555 322.943 594.555Z" fill="#3F3D56"/>
<path d="M335.4 594.555H330.148C329.879 594.555 329.66 594.773 329.66 595.043V597.804C329.66 598.073 329.879 598.292 330.148 598.292H335.4C335.67 598.292 335.888 598.073 335.888 597.804V595.043C335.888 594.773 335.67 594.555 335.4 594.555Z" fill="#3F3D56"/>
<path d="M347.857 594.555H342.605C342.336 594.555 342.117 594.773 342.117 595.043V597.804C342.117 598.073 342.336 598.292 342.605 598.292H347.857C348.127 598.292 348.345 598.073 348.345 597.804V595.043C348.345 594.773 348.127 594.555 347.857 594.555Z" fill="#3F3D56"/>
<path d="M360.314 594.555H355.062C354.793 594.555 354.574 594.773 354.574 595.043V597.804C354.574 598.073 354.793 598.292 355.062 598.292H360.314C360.584 598.292 360.802 598.073 360.802 597.804V595.043C360.802 594.773 360.584 594.555 360.314 594.555Z" fill="#3F3D56"/>
<path d="M372.771 594.555H367.519C367.25 594.555 367.031 594.773 367.031 595.043V597.804C367.031 598.073 367.25 598.292 367.519 598.292H372.771C373.041 598.292 373.259 598.073 373.259 597.804V595.043C373.259 594.773 373.041 594.555 372.771 594.555Z" fill="#3F3D56"/>
<path d="M385.228 594.555H379.976C379.707 594.555 379.488 594.773 379.488 595.043V597.804C379.488 598.073 379.707 598.292 379.976 598.292H385.228C385.498 598.292 385.716 598.073 385.716 597.804V595.043C385.716 594.773 385.498 594.555 385.228 594.555Z" fill="#3F3D56"/>
<path d="M397.685 594.555H392.433C392.164 594.555 391.945 594.773 391.945 595.043V597.804C391.945 598.073 392.164 598.292 392.433 598.292H397.685C397.955 598.292 398.173 598.073 398.173 597.804V595.043C398.173 594.773 397.955 594.555 397.685 594.555Z" fill="#3F3D56"/>
<path d="M410.142 594.555H404.89C404.621 594.555 404.402 594.773 404.402 595.043V597.804C404.402 598.073 404.621 598.292 404.89 598.292H410.142C410.412 598.292 410.63 598.073 410.63 597.804V595.043C410.63 594.773 410.412 594.555 410.142 594.555Z" fill="#3F3D56"/>
<path d="M422.599 594.555H417.347C417.078 594.555 416.859 594.773 416.859 595.043V597.804C416.859 598.073 417.078 598.292 417.347 598.292H422.599C422.869 598.292 423.087 598.073 423.087 597.804V595.043C423.087 594.773 422.869 594.555 422.599 594.555Z" fill="#3F3D56"/>
<path d="M435.056 594.555H429.804C429.535 594.555 429.316 594.773 429.316 595.043V597.804C429.316 598.073 429.535 598.292 429.804 598.292H435.056C435.326 598.292 435.544 598.073 435.544 597.804V595.043C435.544 594.773 435.326 594.555 435.056 594.555Z" fill="#3F3D56"/>
<path d="M447.513 594.555H442.261C441.992 594.555 441.773 594.773 441.773 595.043V597.804C441.773 598.073 441.992 598.292 442.261 598.292H447.513C447.783 598.292 448.001 598.073 448.001 597.804V595.043C448.001 594.773 447.783 594.555 447.513 594.555Z" fill="#3F3D56"/>
<path d="M459.967 594.555H454.715C454.445 594.555 454.227 594.773 454.227 595.043V597.804C454.227 598.073 454.445 598.292 454.715 598.292H459.967C460.236 598.292 460.455 598.073 460.455 597.804V595.043C460.455 594.773 460.236 594.555 459.967 594.555Z" fill="#3F3D56"/>
<path d="M272.97 600.781H267.718C267.449 600.781 267.23 601 267.23 601.269V604.03C267.23 604.3 267.449 604.518 267.718 604.518H272.97C273.24 604.518 273.458 604.3 273.458 604.03V601.269C273.458 601 273.24 600.781 272.97 600.781Z" fill="#3F3D56"/>
<path d="M285.427 600.781H280.176C279.906 600.781 279.688 601 279.688 601.269V604.03C279.688 604.3 279.906 604.518 280.176 604.518H285.427C285.697 604.518 285.916 604.3 285.916 604.03V601.269C285.916 601 285.697 600.781 285.427 600.781Z" fill="#3F3D56"/>
<path d="M297.885 600.781H292.633C292.363 600.781 292.145 601 292.145 601.269V604.03C292.145 604.3 292.363 604.518 292.633 604.518H297.885C298.154 604.518 298.373 604.3 298.373 604.03V601.269C298.373 601 298.154 600.781 297.885 600.781Z" fill="#3F3D56"/>
<path d="M310.342 600.781H305.09C304.82 600.781 304.602 601 304.602 601.269V604.03C304.602 604.3 304.82 604.518 305.09 604.518H310.342C310.611 604.518 310.83 604.3 310.83 604.03V601.269C310.83 601 310.611 600.781 310.342 600.781Z" fill="#3F3D56"/>
<path d="M322.795 600.781H317.543C317.273 600.781 317.055 601 317.055 601.269V604.03C317.055 604.3 317.273 604.518 317.543 604.518H322.795C323.064 604.518 323.283 604.3 323.283 604.03V601.269C323.283 601 323.064 600.781 322.795 600.781Z" fill="#3F3D56"/>
<path d="M335.252 600.781H330C329.73 600.781 329.512 601 329.512 601.269V604.03C329.512 604.3 329.73 604.518 330 604.518H335.252C335.521 604.518 335.74 604.3 335.74 604.03V601.269C335.74 601 335.521 600.781 335.252 600.781Z" fill="#3F3D56"/>
<path d="M347.709 600.781H342.457C342.187 600.781 341.969 601 341.969 601.269V604.03C341.969 604.3 342.187 604.518 342.457 604.518H347.709C347.978 604.518 348.197 604.3 348.197 604.03V601.269C348.197 601 347.978 600.781 347.709 600.781Z" fill="#3F3D56"/>
<path d="M360.166 600.781H354.914C354.644 600.781 354.426 601 354.426 601.269V604.03C354.426 604.3 354.644 604.518 354.914 604.518H360.166C360.435 604.518 360.654 604.3 360.654 604.03V601.269C360.654 601 360.435 600.781 360.166 600.781Z" fill="#3F3D56"/>
<path d="M372.623 600.781H367.371C367.101 600.781 366.883 601 366.883 601.269V604.03C366.883 604.3 367.101 604.518 367.371 604.518H372.623C372.892 604.518 373.111 604.3 373.111 604.03V601.269C373.111 601 372.892 600.781 372.623 600.781Z" fill="#3F3D56"/>
<path d="M385.08 600.781H379.828C379.558 600.781 379.34 601 379.34 601.269V604.03C379.34 604.3 379.558 604.518 379.828 604.518H385.08C385.349 604.518 385.568 604.3 385.568 604.03V601.269C385.568 601 385.349 600.781 385.08 600.781Z" fill="#3F3D56"/>
<path d="M397.537 600.781H392.285C392.015 600.781 391.797 601 391.797 601.269V604.03C391.797 604.3 392.015 604.518 392.285 604.518H397.537C397.806 604.518 398.025 604.3 398.025 604.03V601.269C398.025 601 397.806 600.781 397.537 600.781Z" fill="#3F3D56"/>
<path d="M409.994 600.781H404.742C404.472 600.781 404.254 601 404.254 601.269V604.03C404.254 604.3 404.472 604.518 404.742 604.518H409.994C410.263 604.518 410.482 604.3 410.482 604.03V601.269C410.482 601 410.263 600.781 409.994 600.781Z" fill="#3F3D56"/>
<path d="M422.451 600.781H417.199C416.929 600.781 416.711 601 416.711 601.269V604.03C416.711 604.3 416.929 604.518 417.199 604.518H422.451C422.72 604.518 422.939 604.3 422.939 604.03V601.269C422.939 601 422.72 600.781 422.451 600.781Z" fill="#3F3D56"/>
<path d="M434.908 600.781H429.656C429.386 600.781 429.168 601 429.168 601.269V604.03C429.168 604.3 429.386 604.518 429.656 604.518H434.908C435.177 604.518 435.396 604.3 435.396 604.03V601.269C435.396 601 435.177 600.781 434.908 600.781Z" fill="#3F3D56"/>
<path d="M447.365 600.781H442.113C441.843 600.781 441.625 601 441.625 601.269V604.03C441.625 604.3 441.843 604.518 442.113 604.518H447.365C447.635 604.518 447.853 604.3 447.853 604.03V601.269C447.853 601 447.635 600.781 447.365 600.781Z" fill="#3F3D56"/>
<path d="M459.822 600.781H454.57C454.301 600.781 454.082 601 454.082 601.269V604.03C454.082 604.3 454.301 604.518 454.57 604.518H459.822C460.092 604.518 460.31 604.3 460.31 604.03V601.269C460.31 601 460.092 600.781 459.822 600.781Z" fill="#3F3D56"/>
<path d="M376.362 608.258H327.511C327.242 608.258 327.023 608.476 327.023 608.746V611.507C327.023 611.776 327.242 611.995 327.511 611.995H376.362C376.632 611.995 376.85 611.776 376.85 611.507V608.746C376.85 608.476 376.632 608.258 376.362 608.258Z" fill="#3F3D56"/>
<path d="M514.15 307.28H196.101C195.765 307.28 195.444 307.147 195.206 306.909C194.969 306.672 194.836 306.351 194.836 306.015C194.836 305.68 194.969 305.358 195.206 305.121C195.444 304.883 195.765 304.75 196.101 304.75H514.15C514.485 304.75 514.807 304.883 515.044 305.121C515.282 305.358 515.415 305.68 515.415 306.015C515.415 306.351 515.282 306.672 515.044 306.909C514.807 307.147 514.485 307.28 514.15 307.28Z" fill="#3F3D56"/>
<path d="M217.752 298.295C221.845 298.295 225.164 294.902 225.164 290.718C225.164 286.533 221.845 283.141 217.752 283.141C213.658 283.141 210.34 286.533 210.34 290.718C210.34 294.902 213.658 298.295 217.752 298.295Z" fill="#3F3D56"/>
<path d="M243.357 298.295C247.451 298.295 250.769 294.902 250.769 290.718C250.769 286.533 247.451 283.141 243.357 283.141C239.264 283.141 235.945 286.533 235.945 290.718C235.945 294.902 239.264 298.295 243.357 298.295Z" fill="#3F3D56"/>
<path d="M268.963 298.295C273.056 298.295 276.375 294.902 276.375 290.718C276.375 286.533 273.056 283.141 268.963 283.141C264.869 283.141 261.551 286.533 261.551 290.718C261.551 294.902 264.869 298.295 268.963 298.295Z" fill="#3F3D56"/>
<path d="M498.73 285.016H480.543C480.184 285.026 479.844 285.175 479.593 285.432C479.343 285.689 479.203 286.034 479.203 286.393C479.203 286.751 479.343 287.096 479.593 287.353C479.844 287.61 480.184 287.759 480.543 287.769H498.73C498.914 287.774 499.097 287.742 499.268 287.675C499.44 287.608 499.596 287.508 499.728 287.379C499.859 287.251 499.964 287.098 500.036 286.928C500.107 286.759 500.144 286.577 500.144 286.393C500.144 286.209 500.107 286.027 500.036 285.857C499.964 285.688 499.859 285.534 499.728 285.406C499.596 285.278 499.44 285.177 499.268 285.11C499.097 285.043 498.914 285.011 498.73 285.016Z" fill="#3F3D56"/>
<path d="M498.73 290.18H480.543C480.184 290.189 479.844 290.339 479.593 290.596C479.343 290.853 479.203 291.197 479.203 291.556C479.203 291.915 479.343 292.26 479.593 292.517C479.844 292.774 480.184 292.923 480.543 292.933H498.73C499.095 292.933 499.445 292.788 499.703 292.53C499.961 292.271 500.107 291.921 500.107 291.556C500.107 291.191 499.961 290.841 499.703 290.583C499.445 290.325 499.095 290.18 498.73 290.18Z" fill="#3F3D56"/>
<path d="M498.73 295.352H480.543C480.184 295.362 479.844 295.511 479.593 295.768C479.343 296.025 479.203 296.37 479.203 296.729C479.203 297.087 479.343 297.432 479.593 297.689C479.844 297.946 480.184 298.095 480.543 298.105H498.73C498.914 298.11 499.097 298.078 499.268 298.011C499.44 297.944 499.596 297.844 499.728 297.715C499.859 297.587 499.964 297.434 500.036 297.264C500.107 297.095 500.144 296.913 500.144 296.729C500.144 296.545 500.107 296.363 500.036 296.193C499.964 296.024 499.859 295.87 499.728 295.742C499.596 295.614 499.44 295.513 499.268 295.446C499.097 295.379 498.914 295.347 498.73 295.352Z" fill="#3F3D56"/>
<path d="M224.232 336.672H216.282C214.692 336.672 213.402 337.961 213.402 339.552V340.967C213.402 342.557 214.692 343.847 216.282 343.847H224.232C225.823 343.847 227.112 342.557 227.112 340.967V339.552C227.112 337.961 225.823 336.672 224.232 336.672Z" fill="#262626" fill-opacity="0.68"/>
<path d="M298.975 336.672H291.025C289.434 336.672 288.145 337.961 288.145 339.552V340.967C288.145 342.557 289.434 343.847 291.025 343.847H298.975C300.565 343.847 301.855 342.557 301.855 340.967V339.552C301.855 337.961 300.565 336.672 298.975 336.672Z" fill="#262626" fill-opacity="0.68"/>
<path d="M320.15 336.672H312.2C310.61 336.672 309.32 337.961 309.32 339.552V340.967C309.32 342.557 310.61 343.847 312.2 343.847H320.15C321.741 343.847 323.03 342.557 323.03 340.967V339.552C323.03 337.961 321.741 336.672 320.15 336.672Z" fill="#262626" fill-opacity="0.68"/>
<path d="M278.645 336.078H236.614C235.024 336.078 233.734 337.368 233.734 338.958V340.373C233.734 341.964 235.024 343.253 236.614 343.253H278.645C280.236 343.253 281.525 341.964 281.525 340.373V338.958C281.525 337.368 280.236 336.078 278.645 336.078Z" fill="#262626" fill-opacity="0.68"/>
<path d="M378.298 336.078H336.267C334.676 336.078 333.387 337.368 333.387 338.958V340.373C333.387 341.964 334.676 343.253 336.267 343.253H378.298C379.888 343.253 381.178 341.964 381.178 340.373V338.958C381.178 337.368 379.888 336.078 378.298 336.078Z" fill="#262626" fill-opacity="0.68"/>
<path d="M244.162 352.867H236.212C234.621 352.867 233.332 354.157 233.332 355.747V357.162C233.332 358.753 234.621 360.042 236.212 360.042H244.162C245.753 360.042 247.042 358.753 247.042 357.162V355.747C247.042 354.157 245.753 352.867 244.162 352.867Z" fill="#262626" fill-opacity="0.68"/>
<path d="M318.904 352.867H310.954C309.364 352.867 308.074 354.157 308.074 355.747V357.162C308.074 358.753 309.364 360.042 310.954 360.042H318.904C320.495 360.042 321.784 358.753 321.784 357.162V355.747C321.784 354.157 320.495 352.867 318.904 352.867Z" fill="#262626" fill-opacity="0.68"/>
<path d="M340.08 352.867H332.13C330.539 352.867 329.25 354.157 329.25 355.747V357.162C329.25 358.753 330.539 360.042 332.13 360.042H340.08C341.671 360.042 342.96 358.753 342.96 357.162V355.747C342.96 354.157 341.671 352.867 340.08 352.867Z" fill="#262626" fill-opacity="0.68"/>
<path d="M298.575 352.273H256.544C254.953 352.273 253.664 353.563 253.664 355.153V356.568C253.664 358.159 254.953 359.448 256.544 359.448H298.575C300.166 359.448 301.455 358.159 301.455 356.568V355.153C301.455 353.563 300.166 352.273 298.575 352.273Z" fill="#262626" fill-opacity="0.68"/>
<path d="M398.227 352.273H356.196C354.606 352.273 353.316 353.563 353.316 355.153V356.568C353.316 358.159 354.606 359.448 356.196 359.448H398.227C399.818 359.448 401.107 358.159 401.107 356.568V355.153C401.107 353.563 399.818 352.273 398.227 352.273Z" fill="#262626" fill-opacity="0.68"/>
<path d="M264.096 369.062H256.146C254.555 369.062 253.266 370.352 253.266 371.943V373.358C253.266 374.948 254.555 376.238 256.146 376.238H264.096C265.686 376.238 266.976 374.948 266.976 373.358V371.943C266.976 370.352 265.686 369.062 264.096 369.062Z" fill="#262626" fill-opacity="0.68"/>
<path d="M338.834 369.062H330.884C329.293 369.062 328.004 370.352 328.004 371.943V373.358C328.004 374.948 329.293 376.238 330.884 376.238H338.834C340.424 376.238 341.714 374.948 341.714 373.358V371.943C341.714 370.352 340.424 369.062 338.834 369.062Z" fill="#262626" fill-opacity="0.68"/>
<path d="M360.01 369.062H352.06C350.469 369.062 349.18 370.352 349.18 371.943V373.358C349.18 374.948 350.469 376.238 352.06 376.238H360.01C361.6 376.238 362.89 374.948 362.89 373.358V371.943C362.89 370.352 361.6 369.062 360.01 369.062Z" fill="#262626" fill-opacity="0.68"/>
<path d="M318.505 368.461H276.474C274.883 368.461 273.594 369.75 273.594 371.341V372.756C273.594 374.347 274.883 375.636 276.474 375.636H318.505C320.095 375.636 321.385 374.347 321.385 372.756V371.341C321.385 369.75 320.095 368.461 318.505 368.461Z" fill="#262626" fill-opacity="0.68"/>
<path d="M418.161 368.461H376.13C374.539 368.461 373.25 369.75 373.25 371.341V372.756C373.25 374.347 374.539 375.636 376.13 375.636H418.161C419.752 375.636 421.041 374.347 421.041 372.756V371.341C421.041 369.75 419.752 368.461 418.161 368.461Z" fill="#262626" fill-opacity="0.68"/>
<path d="M284.025 385.258H276.075C274.485 385.258 273.195 386.547 273.195 388.138V389.553C273.195 391.143 274.485 392.433 276.075 392.433H284.025C285.616 392.433 286.905 391.143 286.905 389.553V388.138C286.905 386.547 285.616 385.258 284.025 385.258Z" fill="#262626" fill-opacity="0.68"/>
<path d="M358.767 385.258H350.818C349.227 385.258 347.938 386.547 347.938 388.138V389.553C347.938 391.143 349.227 392.433 350.818 392.433H358.767C360.358 392.433 361.648 391.143 361.648 389.553V388.138C361.648 386.547 360.358 385.258 358.767 385.258Z" fill="#262626" fill-opacity="0.68"/>
<path d="M379.943 385.258H371.993C370.403 385.258 369.113 386.547 369.113 388.138V389.553C369.113 391.143 370.403 392.433 371.993 392.433H379.943C381.534 392.433 382.823 391.143 382.823 389.553V388.138C382.823 386.547 381.534 385.258 379.943 385.258Z" fill="#262626" fill-opacity="0.68"/>
<path d="M338.438 384.656H296.407C294.817 384.656 293.527 385.946 293.527 387.536V388.951C293.527 390.542 294.817 391.831 296.407 391.831H338.438C340.029 391.831 341.318 390.542 341.318 388.951V387.536C341.318 385.946 340.029 384.656 338.438 384.656Z" fill="#262626" fill-opacity="0.68"/>
<path d="M298.975 449.648H291.025C289.434 449.648 288.145 450.938 288.145 452.528V453.943C288.145 455.534 289.434 456.823 291.025 456.823H298.975C300.565 456.823 301.855 455.534 301.855 453.943V452.528C301.855 450.938 300.565 449.648 298.975 449.648Z" fill="#262626" fill-opacity="0.68"/>
<path d="M320.15 449.648H312.2C310.61 449.648 309.32 450.938 309.32 452.528V453.943C309.32 455.534 310.61 456.823 312.2 456.823H320.15C321.741 456.823 323.03 455.534 323.03 453.943V452.528C323.03 450.938 321.741 449.648 320.15 449.648Z" fill="#262626" fill-opacity="0.68"/>
<path d="M378.298 450.25H336.267C334.676 450.25 333.387 451.539 333.387 453.13V454.545C333.387 456.136 334.676 457.425 336.267 457.425H378.298C379.888 457.425 381.178 456.136 381.178 454.545V453.13C381.178 451.539 379.888 450.25 378.298 450.25Z" fill="#262626" fill-opacity="0.68"/>
<path d="M224.232 449.648H216.282C214.692 449.648 213.402 450.938 213.402 452.528V453.943C213.402 455.534 214.692 456.823 216.282 456.823H224.232C225.823 456.823 227.112 455.534 227.112 453.943V452.528C227.112 450.938 225.823 449.648 224.232 449.648Z" fill="#262626" fill-opacity="0.68"/>
<path d="M278.645 450.25H236.614C235.024 450.25 233.734 451.539 233.734 453.13V454.545C233.734 456.136 235.024 457.425 236.614 457.425H278.645C280.236 457.425 281.525 456.136 281.525 454.545V453.13C281.525 451.539 280.236 450.25 278.645 450.25Z" fill="#262626" fill-opacity="0.68"/>
<path d="M244.162 433.453H236.212C234.621 433.453 233.332 434.743 233.332 436.333V437.748C233.332 439.339 234.621 440.628 236.212 440.628H244.162C245.753 440.628 247.042 439.339 247.042 437.748V436.333C247.042 434.743 245.753 433.453 244.162 433.453Z" fill="#262626" fill-opacity="0.68"/>
<path d="M318.904 433.453H310.954C309.364 433.453 308.074 434.743 308.074 436.333V437.748C308.074 439.339 309.364 440.628 310.954 440.628H318.904C320.495 440.628 321.784 439.339 321.784 437.748V436.333C321.784 434.743 320.495 433.453 318.904 433.453Z" fill="#262626" fill-opacity="0.68"/>
<path d="M340.08 433.453H332.13C330.539 433.453 329.25 434.743 329.25 436.333V437.748C329.25 439.339 330.539 440.628 332.13 440.628H340.08C341.671 440.628 342.96 439.339 342.96 437.748V436.333C342.96 434.743 341.671 433.453 340.08 433.453Z" fill="#262626" fill-opacity="0.68"/>
<path d="M298.575 434.055H256.544C254.953 434.055 253.664 435.344 253.664 436.935V438.35C253.664 439.94 254.953 441.23 256.544 441.23H298.575C300.166 441.23 301.455 439.94 301.455 438.35V436.935C301.455 435.344 300.166 434.055 298.575 434.055Z" fill="#262626" fill-opacity="0.68"/>
<path d="M264.096 417.258H256.146C254.555 417.258 253.266 418.547 253.266 420.138V421.553C253.266 423.143 254.555 424.433 256.146 424.433H264.096C265.686 424.433 266.976 423.143 266.976 421.553V420.138C266.976 418.547 265.686 417.258 264.096 417.258Z" fill="#262626" fill-opacity="0.68"/>
<path d="M338.834 417.258H330.884C329.293 417.258 328.004 418.547 328.004 420.138V421.553C328.004 423.143 329.293 424.433 330.884 424.433H338.834C340.424 424.433 341.714 423.143 341.714 421.553V420.138C341.714 418.547 340.424 417.258 338.834 417.258Z" fill="#262626" fill-opacity="0.68"/>
<path d="M360.01 417.258H352.06C350.469 417.258 349.18 418.547 349.18 420.138V421.553C349.18 423.143 350.469 424.433 352.06 424.433H360.01C361.6 424.433 362.89 423.143 362.89 421.553V420.138C362.89 418.547 361.6 417.258 360.01 417.258Z" fill="#262626" fill-opacity="0.68"/>
<path d="M318.505 417.859H276.474C274.883 417.859 273.594 419.149 273.594 420.739V422.154C273.594 423.745 274.883 425.034 276.474 425.034H318.505C320.095 425.034 321.385 423.745 321.385 422.154V420.739C321.385 419.149 320.095 417.859 318.505 417.859Z" fill="#262626" fill-opacity="0.68"/>
<path d="M284.025 401.07H276.075C274.485 401.07 273.195 402.36 273.195 403.95V405.365C273.195 406.956 274.485 408.245 276.075 408.245H284.025C285.616 408.245 286.905 406.956 286.905 405.365V403.95C286.905 402.36 285.616 401.07 284.025 401.07Z" fill="#262626" fill-opacity="0.68"/>
<path d="M358.767 401.07H350.818C349.227 401.07 347.938 402.36 347.938 403.95V405.365C347.938 406.956 349.227 408.245 350.818 408.245H358.767C360.358 408.245 361.648 406.956 361.648 405.365V403.95C361.648 402.36 360.358 401.07 358.767 401.07Z" fill="#262626" fill-opacity="0.68"/>
<path d="M379.943 401.07H371.993C370.403 401.07 369.113 402.36 369.113 403.95V405.365C369.113 406.956 370.403 408.245 371.993 408.245H379.943C381.534 408.245 382.823 406.956 382.823 405.365V403.95C382.823 402.36 381.534 401.07 379.943 401.07Z" fill="#262626" fill-opacity="0.68"/>
<path d="M338.438 401.664H296.407C294.817 401.664 293.527 402.953 293.527 404.544V405.959C293.527 407.55 294.817 408.839 296.407 408.839H338.438C340.029 408.839 341.318 407.55 341.318 405.959V404.544C341.318 402.953 340.029 401.664 338.438 401.664Z" fill="#262626" fill-opacity="0.68"/>
<path d="M332.629 416.949C332.629 416.949 353.242 445.885 345.88 453.72C338.518 461.555 401.11 461.75 401.11 461.75C401.11 461.75 391.71 419.656 394.475 409.969L332.629 416.949Z" fill="#FFB9B9"/>
<path d="M517.964 683.59C517.204 683.976 516.432 684.363 515.672 684.737C495.99 694.578 480.245 700.17 458.708 706.299C456.889 686 455.133 650.306 453.426 628.183C452.978 622.441 452.526 617.62 452.093 614.219C451.981 612.411 451.611 610.628 450.993 608.925L451.068 614.219L451.255 628.183L452.339 708.043C425.547 715.132 398.026 719.099 370.324 719.865C368.879 719.902 367.459 719.926 366.089 719.951C365.603 719.963 365.13 719.977 364.656 719.977C363.099 719.99 361.556 720.001 359.997 720.001C330.803 720.023 301.715 716.498 273.373 709.501C273.983 689.408 274.594 654.118 275.179 628.183C275.304 623.113 275.416 618.392 275.54 614.219C275.777 605.3 276.026 598.872 276.263 596.719C276.053 597.101 275.89 597.507 275.777 597.927C274.623 603.299 273.837 608.742 273.423 614.22C272.987 618.393 272.551 623.115 272.115 628.185C269.798 655.129 267.382 691.763 264.89 707.297C250.061 703.249 235.51 698.244 221.329 692.312C213.857 689.197 206.517 685.837 199.309 682.233C200.679 673.264 202.109 663.212 203.582 652.785C204.728 644.701 205.911 636.392 207.12 628.185C208.988 615.504 210.907 603.072 212.85 592.123C215.69 576.129 218.605 563.274 221.495 557.37C224.236 551.764 226.976 546.233 229.629 540.939C230.551 539.083 231.473 537.252 232.37 535.471C232.582 535.047 232.794 534.636 233.005 534.225C234.911 530.476 236.755 526.889 238.511 523.526C240.018 520.648 241.451 517.932 242.811 515.425C246.1 509.346 248.89 504.5 250.958 501.436C259.603 488.323 272.472 478.561 287.431 473.771L287.805 473.67L288.067 473.782L313.541 465.959L317.266 464.813L319.766 464.042L328.585 457.327L333.385 453.677L337.885 450.251L346.679 443.562L401.127 446.914L411.727 472.438L435.469 481.12L435.88 480.932L436.241 480.784L436.615 480.883C451.57 485.678 464.439 495.44 473.088 508.549C474.259 510.305 475.679 512.622 477.288 515.425C478.658 517.804 480.153 520.521 481.772 523.526C484.072 527.799 486.593 532.619 489.259 537.839C489.844 538.985 490.442 540.156 491.04 541.339C492.148 543.531 493.274 545.768 494.416 548.052C497.069 553.346 499.81 558.877 502.55 564.495C504.929 569.366 507.333 579.382 509.7 592.125C511.656 602.713 513.6 615.194 515.48 628.186C517.946 645.028 515.318 665.195 517.548 680.691C517.678 681.672 517.827 682.631 517.964 683.59Z" fill="#34D399"/>
<path d="M360.767 423.191C395.741 423.191 424.093 394.839 424.093 359.865C424.093 324.891 395.741 296.539 360.767 296.539C325.793 296.539 297.441 324.891 297.441 359.865C297.441 394.839 325.793 423.191 360.767 423.191Z" fill="#FFB9B9"/>
<path opacity="0.2" d="M257.008 592.063L267.588 551.211L276.934 586.458L257.008 592.063Z" fill="black"/>
<path d="M538.667 565.448C534.88 617.617 538.804 640.587 517.902 683.6C498.884 692.91 479.074 700.506 458.708 706.3C456.59 706.9 454.468 707.481 452.343 708.044C425.552 715.133 398.03 719.1 370.328 719.866C368.883 719.903 367.463 719.928 366.093 719.953C365.607 719.966 365.134 719.978 364.66 719.978C363.103 719.99 361.56 720.003 360.001 720.003C330.807 720.025 301.72 716.499 273.377 709.503C270.537 708.805 267.709 708.07 264.894 707.298C250.065 703.25 235.514 698.244 221.333 692.313C213.859 689.199 206.517 685.84 199.309 682.235C197.677 681.413 196.045 680.591 194.438 679.744C186.179 665.22 181.483 647.556 181.383 626.33C187.102 589.751 526.036 533.908 538.667 565.448Z" fill="#090814"/>
<path opacity="0.2" d="M538.657 574.387C538.85 571.157 539.067 567.821 539.319 564.347C526.688 532.807 187.753 588.647 182.035 625.223C182.051 628.576 182.194 631.83 182.435 635.007C196.282 598.91 518.275 545.835 538.657 574.387Z" fill="black"/>
<path d="M203.165 426.209C203.248 425.08 203.087 423.946 202.695 422.884C202.302 421.821 201.687 420.856 200.89 420.051C200.093 419.247 199.133 418.622 198.074 418.22C197.016 417.818 195.883 417.647 194.753 417.719C194.332 417.735 193.913 417.788 193.501 417.876L143.971 429.065C142.864 429.334 141.826 429.831 140.923 430.525C140.02 431.219 139.272 432.095 138.728 433.095C138.002 433.123 137.28 433.227 136.576 433.408C135.017 433.74 133.539 434.378 132.228 435.285C130.917 436.192 129.8 437.351 128.941 438.694C128.081 440.037 127.497 441.537 127.223 443.107C126.948 444.678 126.988 446.287 127.341 447.842C127.693 449.396 128.351 450.865 129.276 452.164C130.201 453.462 131.375 454.564 132.73 455.405C134.084 456.246 135.592 456.809 137.166 457.062C138.74 457.316 140.348 457.254 141.898 456.88C143.67 456.469 145.327 455.667 146.749 454.533L163.533 501.795C164.371 503.276 165.667 504.446 167.225 505.13C168.783 505.814 170.521 505.976 172.179 505.59L204.379 498.313C206.024 497.928 207.504 497.031 208.608 495.752C209.711 494.473 210.381 492.877 210.521 491.193L203.165 426.209ZM141.154 453.517C140.052 453.769 138.911 453.801 137.797 453.612C136.682 453.423 135.616 453.016 134.659 452.415C132.725 451.2 131.353 449.268 130.845 447.042C130.593 445.94 130.561 444.799 130.75 443.685C130.939 442.57 131.346 441.504 131.947 440.547C132.549 439.589 133.333 438.76 134.254 438.106C135.176 437.451 136.218 436.985 137.32 436.733C137.476 436.694 137.633 436.733 137.79 436.694C137.778 438.12 138.142 439.523 138.846 440.763L144.988 451.48C143.919 452.496 142.594 453.2 141.154 453.517Z" fill="#090814"/>
<path d="M194.755 417.719C195.225 423.979 184.505 431.178 170.146 434.034C156.961 436.734 145.146 434.855 141.82 429.926C142.489 429.529 143.215 429.239 143.972 429.065L193.502 417.876C193.914 417.787 194.334 417.735 194.755 417.719Z" fill="#3F3D56"/>
<path d="M160.5 576.629L188.32 562.719L165.136 500.119L159.026 468.551C158.232 464.45 156.376 460.629 153.642 457.47C150.909 454.311 147.395 451.925 143.45 450.549C139.506 449.174 135.27 448.858 131.165 449.633C127.06 450.408 123.231 452.246 120.059 454.964C115.36 458.994 112.409 464.691 111.831 470.854C111.253 477.017 113.091 483.164 116.959 487.997L139.639 516.347L160.5 576.629Z" fill="#FFB9B9"/>
<path d="M188.32 551.128L151.227 569.675L179.377 657.875C181.398 664.209 185.022 669.913 189.897 674.434C194.771 678.956 200.732 682.141 207.2 683.681C215.174 685.58 223.547 684.891 231.104 681.712C238.66 678.533 245.008 673.03 249.227 666.001L323.871 538.052C329.161 529.235 330.793 518.7 328.42 508.696C326.047 498.692 319.857 490.012 311.171 484.511C306.499 481.552 301.257 479.61 295.785 478.811C290.313 478.013 284.734 478.375 279.412 479.875C274.089 481.375 269.142 483.979 264.893 487.517C260.643 491.055 257.186 495.448 254.747 500.411L209.185 597.494L188.32 551.128Z" fill="#34D399"/>
<path d="M176.846 471.416C176.778 471.416 176.71 471.404 176.646 471.382L168.546 468.594C168.448 468.56 168.36 468.503 168.29 468.427C168.22 468.351 168.169 468.258 168.144 468.158C168.119 468.058 168.119 467.953 168.144 467.852C168.169 467.752 168.22 467.66 168.29 467.584L174.313 461.026C174.367 460.962 174.433 460.909 174.508 460.871C174.583 460.833 174.665 460.811 174.749 460.806C174.833 460.801 174.917 460.812 174.996 460.84C175.075 460.868 175.148 460.912 175.21 460.969C175.272 461.026 175.322 461.094 175.356 461.171C175.391 461.247 175.41 461.33 175.411 461.414C175.413 461.498 175.398 461.581 175.367 461.659C175.336 461.737 175.289 461.808 175.23 461.868L169.85 467.725L177.05 470.204C177.189 470.252 177.306 470.347 177.382 470.474C177.457 470.6 177.485 470.749 177.461 470.894C177.437 471.039 177.363 471.171 177.251 471.267C177.139 471.362 176.997 471.415 176.85 471.416H176.846Z" fill="#34D399"/>
<path d="M187.948 469.146C187.824 469.145 187.703 469.108 187.601 469.039C187.498 468.97 187.418 468.871 187.372 468.756C187.325 468.641 187.314 468.515 187.34 468.394C187.365 468.273 187.426 468.162 187.515 468.076L192.989 462.783L185.635 459.753C185.483 459.69 185.361 459.569 185.298 459.416C185.234 459.264 185.234 459.093 185.297 458.94C185.36 458.787 185.481 458.666 185.633 458.603C185.785 458.539 185.957 458.539 186.109 458.602L194.342 461.995C194.438 462.033 194.523 462.096 194.589 462.175C194.655 462.255 194.7 462.35 194.72 462.452C194.74 462.553 194.734 462.658 194.703 462.757C194.672 462.856 194.617 462.945 194.542 463.018L188.384 468.971C188.268 469.083 188.113 469.146 187.951 469.146H187.948Z" fill="#34D399"/>
<path d="M178.545 475.228C178.482 475.228 178.421 475.218 178.362 475.2C178.283 475.176 178.211 475.136 178.148 475.084C178.085 475.032 178.032 474.968 177.994 474.896C177.956 474.824 177.932 474.745 177.925 474.663C177.917 474.582 177.925 474.5 177.95 474.421L183.698 455.737C183.722 455.658 183.761 455.586 183.813 455.523C183.865 455.46 183.929 455.407 184.002 455.369C184.074 455.331 184.153 455.307 184.235 455.3C184.316 455.292 184.398 455.3 184.476 455.325C184.555 455.349 184.627 455.388 184.69 455.44C184.753 455.492 184.806 455.556 184.844 455.629C184.882 455.701 184.906 455.78 184.913 455.862C184.921 455.943 184.913 456.025 184.889 456.104L179.14 474.789C179.101 474.916 179.022 475.027 178.915 475.106C178.808 475.185 178.678 475.228 178.545 475.228Z" fill="#34D399"/>
<path d="M476.447 276.464C475.195 273.541 473.53 270.813 471.502 268.364C461.885 256.617 444.396 251.448 426.446 265.349C422.991 264.578 419.389 264.786 416.046 265.949C414.467 266.521 412.987 267.337 411.661 268.366C408.942 270.487 406.821 273.279 405.507 276.466C404.804 278.149 404.343 279.923 404.137 281.735C399.699 279.43 395.003 277.661 390.148 276.466C378.234 273.503 365.776 273.503 353.862 276.466C350.044 277.432 346.367 278.889 342.925 280.801C337.095 284.164 333.744 288.412 333.146 293.133C324.738 293.606 315.993 298.033 309.478 305.278C308.743 306.088 308.033 306.935 307.373 307.807C301.894 314.975 298.949 323.759 299.001 332.781V334.363H300.583C304.917 334.359 309.211 335.196 313.227 336.829C315.828 337.874 318.292 339.234 320.564 340.877C322.05 341.931 323.454 343.097 324.764 344.365C327.798 347.303 330.369 350.684 332.388 354.393C337.563 363.767 339.357 374.635 337.47 385.174C337.037 387.614 336.404 390.014 335.577 392.349C334.399 395.68 332.849 398.867 330.955 401.849C330.88 401.961 330.818 402.073 330.743 402.185C329.908 403.518 329.111 404.876 328.364 406.246C327.803 407.267 327.28 408.314 326.794 409.36C325.374 412.273 324.175 415.287 323.207 418.379C321.473 423.847 320.451 429.516 320.167 435.245C320.08 436.765 320.055 438.284 320.105 439.804C320.179 443.722 320.608 447.624 321.388 451.464C321.5 451.987 321.612 452.498 321.724 453.021L322.633 456.995L324.788 466.475L326.283 473.002L327.666 479.056L329.709 476.129C330.409 475.129 332.163 472.068 334.517 467.729C336.074 464.901 337.88 461.529 339.836 457.838C342.564 452.668 345.554 446.901 348.481 441.146C349.664 438.817 350.835 436.5 351.969 434.233C354.112 429.933 356.13 425.787 357.861 422.1C359.455 418.7 360.813 415.685 361.822 413.268C362.133 414.85 362.395 416.457 362.594 418.076C362.818 419.72 362.98 421.389 363.067 423.059C363.092 423.308 363.104 423.57 363.117 423.819L363.167 424.841L363.179 425.141L364.499 425.315C372.114 426.131 379.792 426.189 387.419 425.489H387.431C397.535 424.729 407.447 422.326 416.779 418.376C422.079 416.077 427.028 413.041 431.479 409.357C433.557 407.636 435.496 405.753 437.279 403.727C437.727 403.216 438.163 402.706 438.587 402.182C441.052 399.153 443.163 395.851 444.878 392.341C446.026 390.025 447 387.627 447.793 385.166C452.576 370.679 452.302 352.604 446.971 331.129C448.411 330.852 449.79 330.32 451.044 329.559C454.955 327.205 457.671 322.533 458.518 316.828L459.863 317.189C464.632 314.968 468.88 311.768 472.332 307.797C473.015 306.989 473.655 306.145 474.25 305.268C480.346 296.306 480.396 285.545 476.447 276.464Z" fill="#2F2E41"/>
</g>
<defs>
<clipPath id="clip0_645_8840">
<rect width="720" height="719.998" fill="white"/>
</clipPath>
</defs>
</svg>
