<svg width="720" height="720" viewBox="0 0 720 720" fill="none" xmlns="http://www.w3.org/2000/svg">
<g clip-path="url(#clip0_645_8840)">
<path d="M717.998 359.995C718.122 444.973 688.064 527.235 633.18 592.113C631.187 594.48 629.157 596.813 627.089 599.126C602.755 626.493 574.409 650.009 543.019 668.871C535.819 673.193 528.461 677.267 520.946 681.091C520.186 681.477 519.414 681.863 518.654 682.237C517.745 682.698 516.823 683.146 515.901 683.595C496.883 692.905 477.073 700.501 456.707 706.295C454.589 706.895 452.467 707.476 450.342 708.039C423.55 715.127 396.029 719.094 368.327 719.86C366.882 719.897 365.462 719.922 364.092 719.947C363.606 719.96 363.133 719.972 362.659 719.972C361.102 719.984 359.559 719.997 358 719.997C328.806 720.019 299.718 716.493 271.376 709.497C268.536 708.799 265.708 708.064 262.893 707.292C248.064 703.244 233.513 698.238 219.332 692.307C211.858 689.193 204.516 685.833 197.308 682.229C195.676 681.407 194.044 680.585 192.437 679.738C191.752 679.402 191.079 679.038 190.407 678.692C151.988 658.414 117.535 631.382 88.6976 598.892C86.7046 596.662 84.7486 594.392 82.8176 592.116C51.044 554.443 27.3429 510.649 13.1823 463.444C-0.97824 416.24 -5.29674 366.631 0.494241 317.69C6.28522 268.748 22.0624 221.517 46.8486 178.921C71.6348 136.325 104.902 99.2714 144.591 70.0548C146.634 68.5478 148.691 67.0548 150.77 65.5948L152.003 64.7358C188.555 39.1321 229.581 20.6047 272.958 10.1128C275.424 9.50278 277.891 8.92978 280.382 8.39378C327.365 -1.88219 375.921 -2.73194 423.236 5.89378C425.715 6.35478 428.194 6.82778 430.66 7.33878C473.648 16.1563 514.649 32.8056 551.615 56.4558C552.437 56.9788 553.259 57.5018 554.081 58.0498C555.738 59.1208 557.394 60.2168 559.026 61.3258C607.993 94.2462 648.108 138.71 675.831 190.796C703.555 242.882 718.036 300.99 717.998 359.995Z" fill="#535353" fill-opacity="0.14"/>
<path d="M267.065 546.236L152.003 556.451L150.77 556.563V65.5941L152.003 64.7351C175.983 47.9619 201.923 34.1824 229.247 23.7031L235.13 104.795L235.666 112.219L241.483 192.64L243.276 217.379L266.854 543.372L267.065 546.236Z" fill="#D6D6E3" fill-opacity="0.18"/>
<path d="M551.614 56.449C552.436 56.972 553.258 57.495 554.08 58.043V556.562L551.614 556.338L437.797 546.238L438.009 543.373L461.59 217.381L463.384 192.642L469.201 112.221L469.737 104.792L475.903 19.75C502.494 28.9679 527.906 41.2862 551.615 56.45L551.614 56.449Z" fill="#D6D6E3" fill-opacity="0.18"/>
<path d="M551.609 56.4453V563.358C551.609 573.087 544.909 580.997 536.661 580.997H166.949C160.123 580.997 154.33 575.566 152.574 568.154C152.19 566.583 151.998 564.972 152.001 563.354V64.7253L150.768 65.5843C148.688 67.0413 146.632 68.5363 144.589 70.0443V563.358C144.479 570.748 147.239 577.893 152.289 583.289C154.937 586.061 158.286 588.065 161.98 589.089C163.6 589.53 165.271 589.752 166.95 589.749H536.665C538.348 589.751 540.024 589.529 541.648 589.089C551.588 586.411 559.025 575.897 559.025 563.353V61.3163C557.393 60.2073 555.736 59.1163 554.08 58.0403C553.257 57.4913 552.435 56.9683 551.609 56.4453Z" fill="#D6D6E3" fill-opacity="0.18"/>
<path d="M555.323 104.797H148.297V112.22H555.323V104.797Z" fill="#D6D6E3" fill-opacity="0.18"/>
<path d="M272.957 10.1096C275.423 9.49962 277.89 8.92663 280.381 8.39062V209.951H272.957V10.1096Z" fill="#D6D6E3" fill-opacity="0.18"/>
<path d="M423.234 5.89062C425.713 6.35162 428.192 6.82463 430.658 7.33563V209.961H423.234V5.89062Z" fill="#D6D6E3" fill-opacity="0.18"/>
<path d="M601.712 543.367H114.268C105.408 543.367 96.9101 546.887 90.6447 553.152C84.3793 559.418 80.8594 567.916 80.8594 576.776C80.8594 585.637 84.3793 594.134 90.6447 600.4C96.9101 606.665 105.408 610.185 114.268 610.185H601.712C606.458 610.186 611.149 609.174 615.472 607.216C619.795 605.258 623.651 602.4 626.78 598.832C628.195 597.222 629.453 595.481 630.537 593.632C631.378 592.213 632.107 590.73 632.717 589.198C634.752 584.13 635.513 578.64 634.932 573.21C634.352 567.78 632.448 562.575 629.389 558.051C626.329 553.528 622.206 549.824 617.381 547.264C612.557 544.705 607.179 543.368 601.717 543.37L601.712 543.367Z" fill="#D6D6E3" fill-opacity="0.18"/>
<path d="M555.322 192.641H150.77V217.384H555.322V192.641Z" fill="#D6D6E3" fill-opacity="0.18"/>
<path d="M349.336 185.211H356.759C358.546 185.211 360.316 185.563 361.967 186.247C363.618 186.931 365.118 187.933 366.382 189.197C367.646 190.461 368.648 191.961 369.332 193.613C370.016 195.264 370.368 197.034 370.368 198.821H335.727C335.727 195.212 337.16 191.75 339.713 189.198C342.265 186.646 345.726 185.211 349.336 185.211Z" fill="#D6D6E3" fill-opacity="0.18"/>
<path d="M633.178 592.109C622.357 604.931 610.652 616.98 598.15 628.169H117.844C105.342 616.98 93.6379 604.931 82.8164 592.109H633.178Z" fill="#3F3D56"/>
<path d="M398.206 467.211H317.337C316.902 467.207 316.468 467.274 316.054 467.411C315.177 467.683 314.409 468.229 313.865 468.969C313.32 469.709 313.027 470.603 313.027 471.522V599.277H402.527V471.521C402.527 470.954 402.415 470.393 402.197 469.87C401.979 469.346 401.661 468.871 401.26 468.47C400.858 468.07 400.382 467.753 399.858 467.537C399.334 467.321 398.773 467.21 398.206 467.211ZM367.6 530.241C367.603 532.313 366.92 534.328 365.657 535.971C364.452 537.566 362.777 538.742 360.868 539.334C358.959 539.926 356.913 539.903 355.017 539.271C353.121 538.638 351.472 537.426 350.301 535.806C349.131 534.186 348.498 532.24 348.492 530.241V515.418C348.492 512.884 349.499 510.454 351.291 508.662C353.083 506.87 355.513 505.864 358.047 505.864C360.581 505.864 363.011 506.87 364.803 508.662C366.595 510.454 367.601 512.884 367.601 515.418L367.6 530.241Z" fill="#2F2E41"/>
<path d="M312.754 595.188V607.508C312.754 608.146 313.006 608.758 313.456 609.211C313.905 609.664 314.516 609.92 315.154 609.924H400.395C401.032 609.918 401.642 609.661 402.091 609.209C402.54 608.756 402.793 608.145 402.795 607.508V595.188H312.754Z" fill="#3F3D56"/>
<path d="M532.119 267.836H186.445C183.475 267.84 180.627 269.02 178.526 271.12C176.425 273.219 175.241 276.066 175.234 279.036V512.299C175.237 515.272 176.419 518.122 178.521 520.224C180.623 522.326 183.473 523.508 186.445 523.51H532.119C535.092 523.508 537.942 522.326 540.044 520.224C542.146 518.122 543.328 515.272 543.33 512.299V279.035C543.323 276.065 542.14 273.218 540.038 271.119C537.937 269.02 535.089 267.84 532.119 267.836Z" fill="#3F3D56"/>
<path d="M529.226 275.938H189.32C187.73 275.94 186.206 276.573 185.083 277.698C183.959 278.823 183.328 280.348 183.328 281.938V509.426C183.331 511.015 183.963 512.537 185.086 513.66C186.209 514.784 187.732 515.415 189.32 515.418H529.226C530.815 515.415 532.338 514.783 533.461 513.66C534.584 512.537 535.216 511.014 535.218 509.426V281.941C535.218 280.352 534.587 278.827 533.464 277.702C532.341 276.577 530.817 275.944 529.227 275.941L529.226 275.938Z" fill="#515151"/>
<path d="M466.67 609.719L463.531 594.808C463.4 594.201 463.12 593.636 462.715 593.164C462.311 592.693 461.795 592.33 461.214 592.108C460.794 591.943 460.346 591.859 459.894 591.859H263.937C263.485 591.859 263.038 591.943 262.617 592.108C262.036 592.33 261.52 592.693 261.116 593.164C260.711 593.636 260.431 594.201 260.3 594.808L257.161 609.719C257.048 610.261 257.056 610.82 257.186 611.358C257.317 611.895 257.565 612.397 257.913 612.826C258.262 613.256 258.701 613.602 259.2 613.84C259.699 614.079 260.245 614.203 260.798 614.203H463.02C463.575 614.206 464.123 614.083 464.624 613.844C465.124 613.604 465.564 613.254 465.91 612.82C466.259 612.392 466.508 611.892 466.64 611.356C466.771 610.82 466.782 610.26 466.67 609.719Z" fill="#2F2E41"/>
<path d="M271.115 594.547H265.863C265.593 594.547 265.375 594.765 265.375 595.035V597.796C265.375 598.065 265.593 598.284 265.863 598.284H271.115C271.385 598.284 271.603 598.065 271.603 597.796V595.035C271.603 594.765 271.385 594.547 271.115 594.547Z" fill="#3F3D56"/>
<path d="M283.568 594.547H278.316C278.047 594.547 277.828 594.765 277.828 595.035V597.796C277.828 598.065 278.047 598.284 278.316 598.284H283.568C283.838 598.284 284.056 598.065 284.056 597.796V595.035C284.056 594.765 283.838 594.547 283.568 594.547Z" fill="#3F3D56"/>
<path d="M296.025 594.547H290.773C290.504 594.547 290.285 594.765 290.285 595.035V597.796C290.285 598.065 290.504 598.284 290.773 598.284H296.025C296.295 598.284 296.513 598.065 296.513 597.796V595.035C296.513 594.765 296.295 594.547 296.025 594.547Z" fill="#3F3D56"/>
<path d="M308.482 594.547H303.23C302.961 594.547 302.742 594.765 302.742 595.035V597.796C302.742 598.065 302.961 598.284 303.23 598.284H308.482C308.752 598.284 308.97 598.065 308.97 597.796V595.035C308.97 594.765 308.752 594.547 308.482 594.547Z" fill="#3F3D56"/>
<path d="M320.939 594.547H315.687C315.418 594.547 315.199 594.765 315.199 595.035V597.796C315.199 598.065 315.418 598.284 315.687 598.284H320.939C321.209 598.284 321.427 598.065 321.427 597.796V595.035C321.427 594.765 321.209 594.547 320.939 594.547Z" fill="#3F3D56"/>
<path d="M333.396 594.547H328.144C327.875 594.547 327.656 594.765 327.656 595.035V597.796C327.656 598.065 327.875 598.284 328.144 598.284H333.396C333.666 598.284 333.884 598.065 333.884 597.796V595.035C333.884 594.765 333.666 594.547 333.396 594.547Z" fill="#3F3D56"/>
<path d="M345.853 594.547H340.601C340.332 594.547 340.113 594.765 340.113 595.035V597.796C340.113 598.065 340.332 598.284 340.601 598.284H345.853C346.123 598.284 346.341 598.065 346.341 597.796V595.035C346.341 594.765 346.123 594.547 345.853 594.547Z" fill="#3F3D56"/>
<path d="M358.31 594.547H353.058C352.789 594.547 352.57 594.765 352.57 595.035V597.796C352.57 598.065 352.789 598.284 353.058 598.284H358.31C358.58 598.284 358.798 598.065 358.798 597.796V595.035C358.798 594.765 358.58 594.547 358.31 594.547Z" fill="#3F3D56"/>
<path d="M370.767 594.547H365.515C365.246 594.547 365.027 594.765 365.027 595.035V597.796C365.027 598.065 365.246 598.284 365.515 598.284H370.767C371.037 598.284 371.255 598.065 371.255 597.796V595.035C371.255 594.765 371.037 594.547 370.767 594.547Z" fill="#3F3D56"/>
<path d="M383.224 594.547H377.972C377.703 594.547 377.484 594.765 377.484 595.035V597.796C377.484 598.065 377.703 598.284 377.972 598.284H383.224C383.494 598.284 383.712 598.065 383.712 597.796V595.035C383.712 594.765 383.494 594.547 383.224 594.547Z" fill="#3F3D56"/>
<path d="M395.681 594.547H390.429C390.16 594.547 389.941 594.765 389.941 595.035V597.796C389.941 598.065 390.16 598.284 390.429 598.284H395.681C395.951 598.284 396.169 598.065 396.169 597.796V595.035C396.169 594.765 395.951 594.547 395.681 594.547Z" fill="#3F3D56"/>
<path d="M408.138 594.547H402.886C402.617 594.547 402.398 594.765 402.398 595.035V597.796C402.398 598.065 402.617 598.284 402.886 598.284H408.138C408.408 598.284 408.626 598.065 408.626 597.796V595.035C408.626 594.765 408.408 594.547 408.138 594.547Z" fill="#3F3D56"/>
<path d="M420.595 594.547H415.343C415.074 594.547 414.855 594.765 414.855 595.035V597.796C414.855 598.065 415.074 598.284 415.343 598.284H420.595C420.865 598.284 421.083 598.065 421.083 597.796V595.035C421.083 594.765 420.865 594.547 420.595 594.547Z" fill="#3F3D56"/>
<path d="M433.052 594.547H427.801C427.531 594.547 427.312 594.765 427.312 595.035V597.796C427.312 598.065 427.531 598.284 427.801 598.284H433.052C433.322 598.284 433.541 598.065 433.541 597.796V595.035C433.541 594.765 433.322 594.547 433.052 594.547Z" fill="#3F3D56"/>
<path d="M445.51 594.547H440.258C439.988 594.547 439.77 594.765 439.77 595.035V597.796C439.77 598.065 439.988 598.284 440.258 598.284H445.51C445.779 598.284 445.998 598.065 445.998 597.796V595.035C445.998 594.765 445.779 594.547 445.51 594.547Z" fill="#3F3D56"/>
<path d="M457.963 594.547H452.711C452.441 594.547 452.223 594.765 452.223 595.035V597.796C452.223 598.065 452.441 598.284 452.711 598.284H457.963C458.232 598.284 458.451 598.065 458.451 597.796V595.035C458.451 594.765 458.232 594.547 457.963 594.547Z" fill="#3F3D56"/>
<path d="M270.967 600.773H265.715C265.445 600.773 265.227 600.992 265.227 601.261V604.022C265.227 604.292 265.445 604.51 265.715 604.51H270.967C271.236 604.51 271.455 604.292 271.455 604.022V601.261C271.455 600.992 271.236 600.773 270.967 600.773Z" fill="#3F3D56"/>
<path d="M283.424 600.773H278.172C277.902 600.773 277.684 600.992 277.684 601.261V604.022C277.684 604.292 277.902 604.51 278.172 604.51H283.424C283.693 604.51 283.912 604.292 283.912 604.022V601.261C283.912 600.992 283.693 600.773 283.424 600.773Z" fill="#3F3D56"/>
<path d="M295.881 600.773H290.629C290.359 600.773 290.141 600.992 290.141 601.261V604.022C290.141 604.292 290.359 604.51 290.629 604.51H295.881C296.15 604.51 296.369 604.292 296.369 604.022V601.261C296.369 600.992 296.15 600.773 295.881 600.773Z" fill="#3F3D56"/>
<path d="M308.338 600.773H303.086C302.816 600.773 302.598 600.992 302.598 601.261V604.022C302.598 604.292 302.816 604.51 303.086 604.51H308.338C308.607 604.51 308.826 604.292 308.826 604.022V601.261C308.826 600.992 308.607 600.773 308.338 600.773Z" fill="#3F3D56"/>
<path d="M320.791 600.773H315.539C315.269 600.773 315.051 600.992 315.051 601.261V604.022C315.051 604.292 315.269 604.51 315.539 604.51H320.791C321.06 604.51 321.279 604.292 321.279 604.022V601.261C321.279 600.992 321.06 600.773 320.791 600.773Z" fill="#3F3D56"/>
<path d="M333.248 600.773H327.996C327.726 600.773 327.508 600.992 327.508 601.261V604.022C327.508 604.292 327.726 604.51 327.996 604.51H333.248C333.517 604.51 333.736 604.292 333.736 604.022V601.261C333.736 600.992 333.517 600.773 333.248 600.773Z" fill="#3F3D56"/>
<path d="M345.705 600.773H340.453C340.183 600.773 339.965 600.992 339.965 601.261V604.022C339.965 604.292 340.183 604.51 340.453 604.51H345.705C345.974 604.51 346.193 604.292 346.193 604.022V601.261C346.193 600.992 345.974 600.773 345.705 600.773Z" fill="#3F3D56"/>
<path d="M358.162 600.773H352.91C352.64 600.773 352.422 600.992 352.422 601.261V604.022C352.422 604.292 352.64 604.51 352.91 604.51H358.162C358.431 604.51 358.65 604.292 358.65 604.022V601.261C358.65 600.992 358.431 600.773 358.162 600.773Z" fill="#3F3D56"/>
<path d="M370.619 600.773H365.367C365.097 600.773 364.879 600.992 364.879 601.261V604.022C364.879 604.292 365.097 604.51 365.367 604.51H370.619C370.888 604.51 371.107 604.292 371.107 604.022V601.261C371.107 600.992 370.888 600.773 370.619 600.773Z" fill="#3F3D56"/>
<path d="M383.076 600.773H377.824C377.554 600.773 377.336 600.992 377.336 601.261V604.022C377.336 604.292 377.554 604.51 377.824 604.51H383.076C383.345 604.51 383.564 604.292 383.564 604.022V601.261C383.564 600.992 383.345 600.773 383.076 600.773Z" fill="#3F3D56"/>
<path d="M395.533 600.773H390.281C390.011 600.773 389.793 600.992 389.793 601.261V604.022C389.793 604.292 390.011 604.51 390.281 604.51H395.533C395.802 604.51 396.021 604.292 396.021 604.022V601.261C396.021 600.992 395.802 600.773 395.533 600.773Z" fill="#3F3D56"/>
<path d="M407.99 600.773H402.738C402.468 600.773 402.25 600.992 402.25 601.261V604.022C402.25 604.292 402.468 604.51 402.738 604.51H407.99C408.26 604.51 408.478 604.292 408.478 604.022V601.261C408.478 600.992 408.26 600.773 407.99 600.773Z" fill="#3F3D56"/>
<path d="M420.447 600.773H415.195C414.926 600.773 414.707 600.992 414.707 601.261V604.022C414.707 604.292 414.926 604.51 415.195 604.51H420.447C420.717 604.51 420.935 604.292 420.935 604.022V601.261C420.935 600.992 420.717 600.773 420.447 600.773Z" fill="#3F3D56"/>
<path d="M432.904 600.773H427.652C427.383 600.773 427.164 600.992 427.164 601.261V604.022C427.164 604.292 427.383 604.51 427.652 604.51H432.904C433.174 604.51 433.392 604.292 433.392 604.022V601.261C433.392 600.992 433.174 600.773 432.904 600.773Z" fill="#3F3D56"/>
<path d="M445.361 600.773H440.109C439.84 600.773 439.621 600.992 439.621 601.261V604.022C439.621 604.292 439.84 604.51 440.109 604.51H445.361C445.631 604.51 445.849 604.292 445.849 604.022V601.261C445.849 600.992 445.631 600.773 445.361 600.773Z" fill="#3F3D56"/>
<path d="M457.818 600.773H452.566C452.297 600.773 452.078 600.992 452.078 601.261V604.022C452.078 604.292 452.297 604.51 452.566 604.51H457.818C458.088 604.51 458.306 604.292 458.306 604.022V601.261C458.306 600.992 458.088 600.773 457.818 600.773Z" fill="#3F3D56"/>
<path d="M374.359 608.25H325.508C325.238 608.25 325.02 608.468 325.02 608.738V611.499C325.02 611.769 325.238 611.987 325.508 611.987H374.359C374.628 611.987 374.847 611.769 374.847 611.499V608.738C374.847 608.468 374.628 608.25 374.359 608.25Z" fill="#3F3D56"/>
<path d="M512.146 307.272H194.097C193.762 307.272 193.44 307.139 193.203 306.902C192.965 306.664 192.832 306.343 192.832 306.007C192.832 305.672 192.965 305.35 193.203 305.113C193.44 304.875 193.762 304.742 194.097 304.742H512.146C512.482 304.742 512.803 304.875 513.041 305.113C513.278 305.35 513.411 305.672 513.411 306.007C513.411 306.343 513.278 306.664 513.041 306.902C512.803 307.139 512.482 307.272 512.146 307.272Z" fill="#3F3D56"/>
<path d="M215.748 298.287C219.841 298.287 223.16 294.894 223.16 290.71C223.16 286.525 219.841 283.133 215.748 283.133C211.654 283.133 208.336 286.525 208.336 290.71C208.336 294.894 211.654 298.287 215.748 298.287Z" fill="#3F3D56"/>
<path d="M241.353 298.287C245.447 298.287 248.765 294.894 248.765 290.71C248.765 286.525 245.447 283.133 241.353 283.133C237.26 283.133 233.941 286.525 233.941 290.71C233.941 294.894 237.26 298.287 241.353 298.287Z" fill="#3F3D56"/>
<path d="M266.959 298.287C271.052 298.287 274.371 294.894 274.371 290.71C274.371 286.525 271.052 283.133 266.959 283.133C262.865 283.133 259.547 286.525 259.547 290.71C259.547 294.894 262.865 298.287 266.959 298.287Z" fill="#3F3D56"/>
<path d="M496.726 285.008H478.539C478.18 285.018 477.84 285.167 477.589 285.424C477.339 285.681 477.199 286.026 477.199 286.385C477.199 286.744 477.339 287.088 477.589 287.345C477.84 287.602 478.18 287.752 478.539 287.761H496.726C496.91 287.766 497.093 287.734 497.264 287.667C497.436 287.6 497.592 287.5 497.724 287.372C497.856 287.243 497.96 287.09 498.032 286.92C498.103 286.751 498.14 286.569 498.14 286.385C498.14 286.201 498.103 286.019 498.032 285.849C497.96 285.68 497.856 285.526 497.724 285.398C497.592 285.27 497.436 285.169 497.264 285.102C497.093 285.035 496.91 285.003 496.726 285.008Z" fill="#3F3D56"/>
<path d="M496.726 290.172H478.539C478.18 290.182 477.84 290.331 477.589 290.588C477.339 290.845 477.199 291.19 477.199 291.548C477.199 291.907 477.339 292.252 477.589 292.509C477.84 292.766 478.18 292.915 478.539 292.925H496.726C497.091 292.925 497.441 292.78 497.699 292.522C497.958 292.264 498.103 291.913 498.103 291.548C498.103 291.183 497.958 290.833 497.699 290.575C497.441 290.317 497.091 290.172 496.726 290.172Z" fill="#3F3D56"/>
<path d="M496.726 295.344H478.539C478.18 295.354 477.84 295.503 477.589 295.76C477.339 296.017 477.199 296.362 477.199 296.721C477.199 297.08 477.339 297.424 477.589 297.681C477.84 297.938 478.18 298.088 478.539 298.097H496.726C496.91 298.102 497.093 298.07 497.264 298.003C497.436 297.936 497.592 297.836 497.724 297.707C497.856 297.579 497.96 297.426 498.032 297.256C498.103 297.087 498.14 296.905 498.14 296.721C498.14 296.537 498.103 296.355 498.032 296.185C497.96 296.016 497.856 295.862 497.724 295.734C497.592 295.606 497.436 295.505 497.264 295.438C497.093 295.371 496.91 295.339 496.726 295.344Z" fill="#3F3D56"/>
<path d="M222.228 336.664H214.278C212.688 336.664 211.398 337.953 211.398 339.544V340.959C211.398 342.55 212.688 343.839 214.278 343.839H222.228C223.819 343.839 225.108 342.55 225.108 340.959V339.544C225.108 337.953 223.819 336.664 222.228 336.664Z" fill="#262626" fill-opacity="0.68"/>
<path d="M296.971 336.664H289.021C287.43 336.664 286.141 337.953 286.141 339.544V340.959C286.141 342.55 287.43 343.839 289.021 343.839H296.971C298.561 343.839 299.851 342.55 299.851 340.959V339.544C299.851 337.953 298.561 336.664 296.971 336.664Z" fill="#262626" fill-opacity="0.68"/>
<path d="M318.146 336.664H310.196C308.606 336.664 307.316 337.953 307.316 339.544V340.959C307.316 342.55 308.606 343.839 310.196 343.839H318.146C319.737 343.839 321.026 342.55 321.026 340.959V339.544C321.026 337.953 319.737 336.664 318.146 336.664Z" fill="#262626" fill-opacity="0.68"/>
<path d="M276.641 336.07H234.61C233.02 336.07 231.73 337.36 231.73 338.95V340.365C231.73 341.956 233.02 343.245 234.61 343.245H276.641C278.232 343.245 279.521 341.956 279.521 340.365V338.95C279.521 337.36 278.232 336.07 276.641 336.07Z" fill="#262626" fill-opacity="0.68"/>
<path d="M376.294 336.07H334.263C332.672 336.07 331.383 337.36 331.383 338.95V340.365C331.383 341.956 332.672 343.245 334.263 343.245H376.294C377.884 343.245 379.174 341.956 379.174 340.365V338.95C379.174 337.36 377.884 336.07 376.294 336.07Z" fill="#262626" fill-opacity="0.68"/>
<path d="M242.158 352.859H234.208C232.618 352.859 231.328 354.149 231.328 355.739V357.154C231.328 358.745 232.618 360.034 234.208 360.034H242.158C243.749 360.034 245.038 358.745 245.038 357.154V355.739C245.038 354.149 243.749 352.859 242.158 352.859Z" fill="#262626" fill-opacity="0.68"/>
<path d="M316.9 352.859H308.95C307.36 352.859 306.07 354.149 306.07 355.739V357.154C306.07 358.745 307.36 360.034 308.95 360.034H316.9C318.491 360.034 319.78 358.745 319.78 357.154V355.739C319.78 354.149 318.491 352.859 316.9 352.859Z" fill="#262626" fill-opacity="0.68"/>
<path d="M338.076 352.859H330.126C328.536 352.859 327.246 354.149 327.246 355.739V357.154C327.246 358.745 328.536 360.034 330.126 360.034H338.076C339.667 360.034 340.956 358.745 340.956 357.154V355.739C340.956 354.149 339.667 352.859 338.076 352.859Z" fill="#262626" fill-opacity="0.68"/>
<path d="M296.571 352.266H254.54C252.95 352.266 251.66 353.555 251.66 355.146V356.561C251.66 358.151 252.95 359.441 254.54 359.441H296.571C298.162 359.441 299.451 358.151 299.451 356.561V355.146C299.451 353.555 298.162 352.266 296.571 352.266Z" fill="#262626" fill-opacity="0.68"/>
<path d="M396.223 352.266H354.193C352.602 352.266 351.312 353.555 351.312 355.146V356.561C351.312 358.151 352.602 359.441 354.193 359.441H396.223C397.814 359.441 399.104 358.151 399.104 356.561V355.146C399.104 353.555 397.814 352.266 396.223 352.266Z" fill="#262626" fill-opacity="0.68"/>
<path d="M262.092 369.055H254.142C252.551 369.055 251.262 370.344 251.262 371.935V373.35C251.262 374.94 252.551 376.23 254.142 376.23H262.092C263.682 376.23 264.972 374.94 264.972 373.35V371.935C264.972 370.344 263.682 369.055 262.092 369.055Z" fill="#262626" fill-opacity="0.68"/>
<path d="M336.83 369.055H328.88C327.289 369.055 326 370.344 326 371.935V373.35C326 374.94 327.289 376.23 328.88 376.23H336.83C338.421 376.23 339.71 374.94 339.71 373.35V371.935C339.71 370.344 338.421 369.055 336.83 369.055Z" fill="#262626" fill-opacity="0.68"/>
<path d="M358.006 369.055H350.056C348.465 369.055 347.176 370.344 347.176 371.935V373.35C347.176 374.94 348.465 376.23 350.056 376.23H358.006C359.596 376.23 360.886 374.94 360.886 373.35V371.935C360.886 370.344 359.596 369.055 358.006 369.055Z" fill="#262626" fill-opacity="0.68"/>
<path d="M316.501 368.453H274.47C272.879 368.453 271.59 369.743 271.59 371.333V372.748C271.59 374.339 272.879 375.628 274.47 375.628H316.501C318.091 375.628 319.381 374.339 319.381 372.748V371.333C319.381 369.743 318.091 368.453 316.501 368.453Z" fill="#262626" fill-opacity="0.68"/>
<path d="M416.157 368.453H374.126C372.536 368.453 371.246 369.743 371.246 371.333V372.748C371.246 374.339 372.536 375.628 374.126 375.628H416.157C417.748 375.628 419.037 374.339 419.037 372.748V371.333C419.037 369.743 417.748 368.453 416.157 368.453Z" fill="#262626" fill-opacity="0.68"/>
<path d="M282.021 385.25H274.071C272.481 385.25 271.191 386.539 271.191 388.13V389.545C271.191 391.136 272.481 392.425 274.071 392.425H282.021C283.612 392.425 284.901 391.136 284.901 389.545V388.13C284.901 386.539 283.612 385.25 282.021 385.25Z" fill="#262626" fill-opacity="0.68"/>
<path d="M356.76 385.25H348.81C347.219 385.25 345.93 386.539 345.93 388.13V389.545C345.93 391.136 347.219 392.425 348.81 392.425H356.76C358.35 392.425 359.64 391.136 359.64 389.545V388.13C359.64 386.539 358.35 385.25 356.76 385.25Z" fill="#262626" fill-opacity="0.68"/>
<path d="M377.939 385.25H369.989C368.399 385.25 367.109 386.539 367.109 388.13V389.545C367.109 391.136 368.399 392.425 369.989 392.425H377.939C379.53 392.425 380.819 391.136 380.819 389.545V388.13C380.819 386.539 379.53 385.25 377.939 385.25Z" fill="#262626" fill-opacity="0.68"/>
<path d="M336.434 384.648H294.403C292.813 384.648 291.523 385.938 291.523 387.528V388.943C291.523 390.534 292.813 391.823 294.403 391.823H336.434C338.025 391.823 339.314 390.534 339.314 388.943V387.528C339.314 385.938 338.025 384.648 336.434 384.648Z" fill="#262626" fill-opacity="0.68"/>
<path d="M296.971 449.641H289.021C287.43 449.641 286.141 450.93 286.141 452.521V453.936C286.141 455.526 287.43 456.816 289.021 456.816H296.971C298.561 456.816 299.851 455.526 299.851 453.936V452.521C299.851 450.93 298.561 449.641 296.971 449.641Z" fill="#262626" fill-opacity="0.68"/>
<path d="M318.146 449.641H310.196C308.606 449.641 307.316 450.93 307.316 452.521V453.936C307.316 455.526 308.606 456.816 310.196 456.816H318.146C319.737 456.816 321.026 455.526 321.026 453.936V452.521C321.026 450.93 319.737 449.641 318.146 449.641Z" fill="#262626" fill-opacity="0.68"/>
<path d="M376.294 450.242H334.263C332.672 450.242 331.383 451.532 331.383 453.122V454.537C331.383 456.128 332.672 457.417 334.263 457.417H376.294C377.884 457.417 379.174 456.128 379.174 454.537V453.122C379.174 451.532 377.884 450.242 376.294 450.242Z" fill="#262626" fill-opacity="0.68"/>
<path d="M222.228 449.641H214.278C212.688 449.641 211.398 450.93 211.398 452.521V453.936C211.398 455.526 212.688 456.816 214.278 456.816H222.228C223.819 456.816 225.108 455.526 225.108 453.936V452.521C225.108 450.93 223.819 449.641 222.228 449.641Z" fill="#262626" fill-opacity="0.68"/>
<path d="M276.641 450.242H234.61C233.02 450.242 231.73 451.532 231.73 453.122V454.537C231.73 456.128 233.02 457.417 234.61 457.417H276.641C278.232 457.417 279.521 456.128 279.521 454.537V453.122C279.521 451.532 278.232 450.242 276.641 450.242Z" fill="#262626" fill-opacity="0.68"/>
<path d="M242.158 433.445H234.208C232.618 433.445 231.328 434.735 231.328 436.325V437.74C231.328 439.331 232.618 440.62 234.208 440.62H242.158C243.749 440.62 245.038 439.331 245.038 437.74V436.325C245.038 434.735 243.749 433.445 242.158 433.445Z" fill="#262626" fill-opacity="0.68"/>
<path d="M316.9 433.445H308.95C307.36 433.445 306.07 434.735 306.07 436.325V437.74C306.07 439.331 307.36 440.62 308.95 440.62H316.9C318.491 440.62 319.78 439.331 319.78 437.74V436.325C319.78 434.735 318.491 433.445 316.9 433.445Z" fill="#262626" fill-opacity="0.68"/>
<path d="M338.076 433.445H330.126C328.536 433.445 327.246 434.735 327.246 436.325V437.74C327.246 439.331 328.536 440.62 330.126 440.62H338.076C339.667 440.62 340.956 439.331 340.956 437.74V436.325C340.956 434.735 339.667 433.445 338.076 433.445Z" fill="#262626" fill-opacity="0.68"/>
<path d="M296.571 434.047H254.54C252.95 434.047 251.66 435.336 251.66 436.927V438.342C251.66 439.932 252.95 441.222 254.54 441.222H296.571C298.162 441.222 299.451 439.932 299.451 438.342V436.927C299.451 435.336 298.162 434.047 296.571 434.047Z" fill="#262626" fill-opacity="0.68"/>
<path d="M262.092 417.25H254.142C252.551 417.25 251.262 418.539 251.262 420.13V421.545C251.262 423.136 252.551 424.425 254.142 424.425H262.092C263.682 424.425 264.972 423.136 264.972 421.545V420.13C264.972 418.539 263.682 417.25 262.092 417.25Z" fill="#262626" fill-opacity="0.68"/>
<path d="M336.83 417.25H328.88C327.289 417.25 326 418.539 326 420.13V421.545C326 423.136 327.289 424.425 328.88 424.425H336.83C338.421 424.425 339.71 423.136 339.71 421.545V420.13C339.71 418.539 338.421 417.25 336.83 417.25Z" fill="#262626" fill-opacity="0.68"/>
<path d="M358.006 417.25H350.056C348.465 417.25 347.176 418.539 347.176 420.13V421.545C347.176 423.136 348.465 424.425 350.056 424.425H358.006C359.596 424.425 360.886 423.136 360.886 421.545V420.13C360.886 418.539 359.596 417.25 358.006 417.25Z" fill="#262626" fill-opacity="0.68"/>
<path d="M316.501 417.852H274.47C272.879 417.852 271.59 419.141 271.59 420.732V422.147C271.59 423.737 272.879 425.027 274.47 425.027H316.501C318.091 425.027 319.381 423.737 319.381 422.147V420.732C319.381 419.141 318.091 417.852 316.501 417.852Z" fill="#262626" fill-opacity="0.68"/>
<path d="M282.021 401.062H274.071C272.481 401.062 271.191 402.352 271.191 403.943V405.358C271.191 406.948 272.481 408.238 274.071 408.238H282.021C283.612 408.238 284.901 406.948 284.901 405.358V403.943C284.901 402.352 283.612 401.062 282.021 401.062Z" fill="#262626" fill-opacity="0.68"/>
<path d="M356.76 401.062H348.81C347.219 401.062 345.93 402.352 345.93 403.943V405.358C345.93 406.948 347.219 408.238 348.81 408.238H356.76C358.35 408.238 359.64 406.948 359.64 405.358V403.943C359.64 402.352 358.35 401.062 356.76 401.062Z" fill="#262626" fill-opacity="0.68"/>
<path d="M377.939 401.062H369.989C368.399 401.062 367.109 402.352 367.109 403.943V405.358C367.109 406.948 368.399 408.238 369.989 408.238H377.939C379.53 408.238 380.819 406.948 380.819 405.358V403.943C380.819 402.352 379.53 401.062 377.939 401.062Z" fill="#262626" fill-opacity="0.68"/>
<path d="M336.434 401.656H294.403C292.813 401.656 291.523 402.946 291.523 404.536V405.951C291.523 407.542 292.813 408.831 294.403 408.831H336.434C338.025 408.831 339.314 407.542 339.314 405.951V404.536C339.314 402.946 338.025 401.656 336.434 401.656Z" fill="#262626" fill-opacity="0.68"/>
<path opacity="0.2" d="M255.004 592.055L265.584 551.203L274.93 586.45L255.004 592.055Z" fill="black"/>
<path d="M536.663 565.44C532.876 617.609 536.8 640.579 515.898 683.592C496.88 692.902 477.07 700.499 456.704 706.292C454.586 706.892 452.464 707.473 450.339 708.036C423.548 715.125 396.027 719.092 368.324 719.858C366.879 719.895 365.459 719.92 364.089 719.945C363.603 719.958 363.13 719.97 362.656 719.97C361.099 719.982 359.556 719.995 357.997 719.995C328.803 720.017 299.716 716.491 271.373 709.495C268.533 708.797 265.705 708.062 262.89 707.29C248.061 703.242 233.51 698.236 219.329 692.305C211.855 689.191 204.514 685.832 197.305 682.227C195.673 681.405 194.041 680.583 192.434 679.736C184.175 665.212 179.479 647.548 179.379 626.322C185.098 589.743 524.032 533.9 536.663 565.44Z" fill="#090814"/>
<path opacity="0.2" d="M536.653 574.379C536.846 571.149 537.063 567.813 537.315 564.339C524.684 532.799 185.749 588.639 180.031 625.215C180.047 628.568 180.19 631.822 180.431 634.999C194.278 598.902 516.271 545.827 536.653 574.379Z" fill="black"/>
<path d="M470.04 663.015L436.086 662.914C434.197 662.908 432.565 664.215 432.185 666.065C429.922 677.081 422.88 713.136 427.53 713.628C432.078 714.109 449.336 709.961 455.129 708.522C456.341 708.222 457.324 707.367 457.809 706.217L473.713 668.571C474.825 665.939 472.897 663.023 470.04 663.015Z" fill="#ED9DA0"/>
<path d="M476.992 547.992L474.011 652.139V665.822L464.992 668.492L455.492 670.992L445.492 673.492L435.992 675.492L431.672 641.148L419.992 554.089L476.992 547.992Z" fill="#ED9DA0"/>
<path d="M392.484 363.438C393.445 360.475 397.712 359.605 400.267 361.39C402.822 363.176 403.694 366.679 403.198 369.755C402.702 372.831 401.087 375.595 399.502 378.278C387.661 398.325 372.101 455.009 360.26 475.056C367.263 479.717 376.728 480.414 384.339 476.829C388.375 483.795 396.589 488.111 404.619 487.485C412.649 486.859 420.094 481.323 423.001 473.816C421.059 478.289 419.118 482.763 417.176 487.236C426.948 484.048 434.997 476 438.185 466.233C436.059 472.769 433.933 479.305 431.807 485.842C445.165 477.552 455.242 424.586 450.672 408.176C450.506 407.579 450.743 406.947 451.267 406.615L451.285 406.603C451.441 406.504 451.578 406.376 451.685 406.226C458.929 396.069 456.129 381.649 450.015 370.734C443.855 359.737 434.79 350.486 429.368 339.107C422.17 324.001 421.488 305.439 410.102 293.173C402.877 285.39 392.265 281.439 381.707 280.267C371.15 279.095 360.493 280.44 349.956 281.782L350.686 280.089C341.618 273.478 328.428 275.47 319.149 281.782C309.87 288.094 303.612 297.846 297.613 307.327C292.117 316.013 286.621 324.698 281.125 333.383C275.742 341.89 254.849 379.322 252.91 389.199C250.971 399.076 253.35 410.465 261.343 416.589C262.355 411.331 263.367 406.073 264.379 400.815L263.423 401.641C270.21 426.315 270.173 462.819 247.996 475.606C257.714 478.444 268.832 475.862 276.301 469.031L262.105 484.9C269.772 484.767 277.379 482.221 283.579 477.712L272.715 490.588L301.732 475.702L295.696 490.992C307.79 488.723 319.884 486.454 331.977 484.185" fill="#090814"/>
<path d="M299.887 613.992L284.996 671.992L267.496 708.492C267.496 708.492 312.478 722.001 370.996 719.992C429.515 717.984 433.496 712.492 433.496 712.492L427.956 658.027L299.887 613.992Z" fill="#373737"/>
<path d="M266.837 613.021L248.017 635.872C248.017 635.872 246.6 666.992 266.837 666.992C287.073 666.992 316.996 608.676 316.996 608.676L295.949 556.205L262.023 547.992L266.837 613.021Z" fill="#ED9DA0"/>
<path d="M419.924 378.149C421.595 342.221 393.88 311.738 358.021 310.064C322.162 308.39 291.738 336.16 290.068 372.089C288.713 401.227 306.688 426.78 332.657 436.292L341.345 519.992L407.816 469.552C407.816 469.552 394.813 451.265 388.325 431.027C406.387 420.195 418.871 400.798 419.924 378.149Z" fill="#ED9DA0"/>
<path d="M396.884 448.992C396.884 448.992 373.231 537.439 334.797 459.606L283.996 483.104C283.996 483.104 287.544 616.363 298.187 635.232C298.187 635.232 286.953 652.921 300.553 656.459C314.153 659.997 307.057 654.101 314.153 659.997C321.248 665.893 335.44 655.869 335.44 655.869C335.44 655.869 407.221 683.171 428.391 661.855V573.549C428.391 573.549 464.344 540.889 487.996 564.475C487.996 564.475 483.266 489.59 456.657 473.08C430.048 456.569 396.884 448.992 396.884 448.992Z" fill="#34D399"/>
<path d="M295.108 489.168L284.112 482.992C284.112 482.992 241.612 557.399 246.367 567.987C251.123 578.575 306.996 577.986 306.996 577.986L295.108 489.168Z" fill="#34D399"/>
<path d="M349.996 281.96C360.529 280.614 371.182 279.267 381.735 280.441C392.289 281.616 402.897 285.575 410.119 293.373C421.501 305.662 422.183 324.26 429.378 339.395C434.798 350.796 443.86 360.065 450.018 371.083C456.129 382.02 458.928 396.468 451.687 406.644C451.58 406.794 451.442 406.923 451.287 407.022C450.758 407.359 450.509 408.008 450.696 408.607C455.378 423.585 448.87 441.411 435.533 449.707C437.658 443.158 439.784 436.609 441.909 430.06C438.723 439.847 428.552 482.488 418.784 485.683C420.725 481.201 422.666 476.718 424.607 472.236C421.7 479.758 414.258 485.305 406.231 485.932C398.204 486.559 389.994 482.235 385.959 475.255C378.351 478.847 368.889 478.149 361.889 473.479C373.726 453.393 387.687 398.728 399.523 378.642C401.108 375.954 402.722 373.184 403.218 370.102C403.714 367.02 402.842 363.51 400.288 361.722C397.734 359.933 393.469 360.804 392.508 363.774" fill="#090814"/>
<path d="M392.996 363.199L330.722 313.766L285.996 388.992V341.527L337.839 291.992L379.355 296.112L392.996 363.199Z" fill="#090814"/>
<path d="M125.311 524.465C137 518.928 169.083 515.698 183.957 519.071C186.845 519.726 188.818 522.371 188.621 525.298L188.392 528.771C189.626 528.461 190.815 527.986 191.921 527.343C195.196 525.444 201.741 522.657 208.901 525.344C213.903 527.218 217.702 531.316 219.396 536.354C223.443 548.403 217.033 555.936 217.033 555.936L208.463 565.666C201.283 573.809 193.304 581.227 184.645 587.797L184.469 587.927L185.826 567.54C188.054 570.655 192.452 571.308 195.514 568.982C203.251 563.103 215.705 551.627 212.918 540.294C210.975 532.392 206.31 531.138 202.028 531.932C197.237 532.823 193.323 536.253 191.692 540.801C191.301 541.888 190.573 542.821 189.619 543.477L187.321 545.035L184.454 588.247C184.327 590.185 183.258 591.957 181.596 592.983C165.662 602.797 147.165 600.385 140.723 599.113C139.249 598.821 137.931 598.009 137.037 596.808L135.47 594.73C134.927 594.018 134.56 593.185 134.378 592.315L121.972 531.082C121.427 528.378 122.807 525.66 125.321 524.464L125.311 524.465Z" fill="#090814"/>
<path d="M487.496 563.992C487.496 563.992 486.996 565.992 485.996 566.992C484.996 567.992 484.496 567.492 481.996 567.992C479.496 568.492 475.996 567.992 475.996 567.992" stroke="#34D399"/>
<path d="M194.634 575.2C183.479 559.08 192.347 554.779 203 547.5C213.653 540.221 207.5 541.494 227.5 550.998C232.5 556.494 240.642 562.63 241.645 570.433L287.996 639.336L253.98 660.995L211.898 590.777C204.924 587.058 199.002 581.718 194.634 575.21V575.2Z" fill="#ED9DA0"/>
<path d="M192.934 568.719C187.182 562.32 187.612 552.555 193.894 546.908C200.176 541.262 209.931 541.873 215.683 548.272C221.435 554.672 221.005 564.437 214.723 570.083C208.441 575.729 198.686 575.118 192.934 568.719Z" fill="#ED9DA0"/>
<path d="M184.888 522.343C184.409 529.172 171.706 535.251 155.761 536.07C141.108 536.906 128.654 533.016 125.842 527.173C126.626 526.85 127.455 526.651 128.3 526.583L183.512 522.314C183.97 522.283 184.432 522.293 184.888 522.343Z" fill="#3F3D56"/>
<path d="M191.003 557.687C191.876 556.95 194.898 559.305 197.908 563.114C200.684 566.604 202.513 570.145 202.355 571.566C202.175 571.414 202 571.235 201.838 571.037L191.251 558.029C191.164 557.92 191.081 557.805 191.003 557.687Z" fill="#E18E91"/>
<path d="M208.375 568.993C208.84 570.431 208.444 572.358 207.451 573.369C206.544 574.315 205.438 574.168 204.828 573.107C204.856 572.999 204.896 572.914 204.947 572.856C204.947 572.856 206.496 573.492 207.451 571.492C208.405 569.492 208.282 569.06 208.282 569.06C208.31 569.029 208.341 569.007 208.375 568.993Z" fill="#E18E91"/>
<path d="M214.375 565.993C214.84 567.431 214.444 569.358 213.451 570.369C212.544 571.315 211.438 571.168 210.828 570.107C210.856 569.999 210.896 569.914 210.947 569.856C210.947 569.856 212.496 570.492 213.451 568.492C214.405 566.492 214.282 566.06 214.282 566.06C214.31 566.029 214.341 566.007 214.375 565.993Z" fill="#E18E91"/>
<path d="M220.375 561.993C220.84 563.431 220.444 565.358 219.451 566.369C218.544 567.315 217.438 567.168 216.828 566.107C216.856 565.999 216.896 565.914 216.947 565.856C216.947 565.856 218.496 566.492 219.451 564.492C220.405 562.492 220.282 562.06 220.282 562.06C220.31 562.029 220.341 562.007 220.375 561.993Z" fill="#E18E91"/>
<path d="M202.375 571.993C202.84 573.431 202.444 575.358 201.451 576.369C200.544 577.315 199.438 577.168 198.828 576.107C198.856 575.999 198.896 575.914 198.947 575.856C198.947 575.856 200.496 576.492 201.451 574.492C202.405 572.492 202.282 572.06 202.282 572.06C202.31 572.029 202.341 572.007 202.375 571.993Z" fill="#E18E91"/>
<path d="M196.001 553.69C196.867 552.942 200.057 555.564 203.292 559.729C206.274 563.547 208.289 567.382 208.184 568.886C207.992 568.717 207.807 568.521 207.632 568.304L196.269 554.063C196.175 553.944 196.086 553.819 196.001 553.69Z" fill="#E18E91"/>
<path d="M202 550.691C202.871 549.95 205.951 552.398 209.039 556.33C211.886 559.934 213.78 563.577 213.641 565.027C213.456 564.869 213.278 564.684 213.112 564.479L202.255 551.043C202.166 550.931 202.08 550.813 202 550.691Z" fill="#E18E91"/>
<path d="M207 547.144C208.696 545.884 212.725 547.734 216.189 551.429C219.392 554.808 221.038 558.608 220.249 560.466C220.013 560.342 219.796 560.181 219.607 559.99L207.276 547.483C207.175 547.379 207.082 547.265 207 547.144Z" fill="#E18E91"/>
<path d="M150.717 563.111C150.649 563.111 150.581 563.099 150.517 563.077L142.417 560.289C142.319 560.255 142.231 560.198 142.161 560.122C142.091 560.046 142.04 559.953 142.015 559.853C141.99 559.753 141.99 559.648 142.015 559.547C142.04 559.447 142.091 559.355 142.161 559.279L148.184 552.721C148.238 552.657 148.304 552.604 148.379 552.566C148.454 552.528 148.536 552.506 148.62 552.501C148.704 552.496 148.788 552.507 148.867 552.535C148.946 552.563 149.019 552.607 149.081 552.664C149.143 552.721 149.193 552.789 149.227 552.866C149.262 552.942 149.281 553.025 149.282 553.109C149.284 553.193 149.269 553.276 149.238 553.354C149.207 553.432 149.16 553.503 149.101 553.563L143.721 559.42L150.921 561.899C151.06 561.947 151.177 562.042 151.253 562.169C151.328 562.295 151.356 562.444 151.332 562.589C151.308 562.734 151.234 562.866 151.122 562.962C151.01 563.057 150.868 563.11 150.721 563.111H150.717Z" fill="#34D399"/>
<path d="M161.819 560.841C161.695 560.84 161.574 560.803 161.472 560.734C161.369 560.665 161.289 560.566 161.243 560.451C161.196 560.336 161.185 560.21 161.211 560.089C161.236 559.968 161.297 559.857 161.386 559.771L166.86 554.478L159.506 551.448C159.354 551.385 159.232 551.264 159.169 551.111C159.105 550.959 159.105 550.788 159.168 550.635C159.231 550.482 159.352 550.361 159.504 550.298C159.656 550.234 159.828 550.234 159.98 550.297L168.213 553.69C168.309 553.728 168.394 553.791 168.46 553.87C168.526 553.95 168.571 554.045 168.591 554.147C168.611 554.248 168.605 554.353 168.574 554.452C168.543 554.551 168.488 554.64 168.413 554.713L162.255 560.666C162.139 560.778 161.984 560.841 161.822 560.841H161.819Z" fill="#34D399"/>
<path d="M152.416 566.923C152.353 566.923 152.292 566.913 152.233 566.895C152.154 566.871 152.082 566.831 152.019 566.779C151.956 566.727 151.903 566.663 151.865 566.591C151.827 566.519 151.803 566.44 151.796 566.358C151.788 566.277 151.796 566.195 151.821 566.116L157.569 547.432C157.593 547.353 157.632 547.281 157.684 547.218C157.736 547.155 157.8 547.102 157.873 547.064C157.945 547.026 158.024 547.002 158.106 546.995C158.187 546.987 158.269 546.995 158.347 547.02C158.426 547.044 158.498 547.083 158.561 547.135C158.624 547.187 158.677 547.251 158.715 547.324C158.753 547.396 158.777 547.475 158.784 547.557C158.792 547.638 158.784 547.72 158.76 547.799L153.011 566.484C152.972 566.611 152.893 566.722 152.786 566.801C152.679 566.88 152.549 566.923 152.416 566.923Z" fill="#34D399"/>
</g>
<defs>
<clipPath id="clip0_645_8840">
<rect width="720" height="719.998" fill="white"/>
</clipPath>
</defs>
</svg>
