<svg width="584" height="565" viewBox="0 0 584 565" fill="none" xmlns="http://www.w3.org/2000/svg">
<g clip-path="url(#clip0_645_8840)">
<path d="M582.377 282.497C582.478 349.182 558.097 413.734 513.58 464.645C511.964 466.503 510.317 468.334 508.64 470.149C488.902 491.624 465.91 510.078 440.45 524.879C434.61 528.271 428.642 531.468 422.546 534.469C421.929 534.771 421.303 535.074 420.687 535.368C419.95 535.73 419.202 536.081 418.454 536.434C403.028 543.739 386.96 549.7 370.441 554.247C368.723 554.718 367.002 555.174 365.278 555.615C343.547 561.178 321.225 564.291 298.755 564.892C297.583 564.921 296.431 564.94 295.32 564.96C294.926 564.97 294.542 564.979 294.158 564.979C292.895 564.989 291.643 564.999 290.379 564.999C266.7 565.016 243.106 562.249 220.117 556.759C217.813 556.212 215.52 555.635 213.236 555.029C201.208 551.852 189.406 547.924 177.903 543.27C171.841 540.826 165.887 538.19 160.04 535.362C158.716 534.717 157.392 534.072 156.089 533.407C155.533 533.143 154.987 532.858 154.442 532.586C123.28 516.673 95.3351 495.461 71.9448 469.965C70.3282 468.215 68.7417 466.434 67.1754 464.648C41.4035 435.085 22.1792 400.719 10.6935 363.676C-0.792333 326.634 -4.29512 287.704 0.402013 249.299C5.09914 210.893 17.8962 173.83 38.0006 140.404C58.1049 106.978 85.0885 77.9007 117.28 54.9737C118.937 53.7911 120.606 52.6195 122.292 51.4738L123.292 50.7997C152.94 30.7079 186.217 16.169 221.4 7.93574C223.4 7.45706 225.401 7.00742 227.422 6.58681C265.531 -1.477 304.915 -2.14382 343.292 4.625C345.303 4.98675 347.314 5.35792 349.314 5.75892C384.183 12.6782 417.439 25.7434 447.422 44.3022C448.089 44.7126 448.755 45.123 449.422 45.5531C450.766 46.3935 452.109 47.2536 453.433 48.1238C493.151 73.9573 525.688 108.849 548.175 149.722C570.662 190.596 582.408 236.194 582.377 282.497Z" fill="#535353" fill-opacity="0.14"/>
<path d="M216.618 428.646L123.289 436.662L122.289 436.75V51.4744L123.289 50.8004C142.74 37.638 163.78 26.8249 185.943 18.6016L190.714 82.2364L191.149 88.0622L195.867 151.171L197.322 170.584L216.446 426.399L216.618 428.646Z" fill="#D6D6E3" fill-opacity="0.18"/>
<path d="M447.42 44.2986C448.087 44.709 448.753 45.1194 449.42 45.5495V436.749L447.42 436.574L355.102 428.648L355.273 426.4L374.4 170.586L375.855 151.173L380.574 88.0643L381.008 82.2345L386.01 15.5C407.578 22.7335 428.19 32.3999 447.421 44.2994L447.42 44.2986Z" fill="#D6D6E3" fill-opacity="0.18"/>
<path d="M447.418 44.2969V442.084C447.418 449.718 441.984 455.926 435.294 455.926H135.416C129.88 455.926 125.181 451.664 123.757 445.847C123.445 444.615 123.289 443.35 123.292 442.081V50.7944L122.292 51.4685C120.605 52.6118 118.937 53.785 117.28 54.9683V442.084C117.191 447.883 119.43 453.489 123.525 457.724C125.673 459.899 128.389 461.472 131.386 462.276C132.7 462.621 134.056 462.796 135.417 462.794H435.297C436.662 462.795 438.021 462.621 439.339 462.276C447.401 460.174 453.434 451.924 453.434 442.08V48.1193C452.11 47.249 450.766 46.3929 449.423 45.5485C448.755 45.1177 448.088 44.7073 447.418 44.2969Z" fill="#D6D6E3" fill-opacity="0.18"/>
<path d="M450.428 82.2344H120.285V88.0594H450.428V82.2344Z" fill="#D6D6E3" fill-opacity="0.18"/>
<path d="M221.398 7.93487C223.399 7.45619 225.4 7.00655 227.42 6.58594V164.755H221.398V7.93487Z" fill="#D6D6E3" fill-opacity="0.18"/>
<path d="M343.289 4.61719C345.3 4.97895 347.311 5.35013 349.311 5.75112V164.756H343.289V4.61719Z" fill="#D6D6E3" fill-opacity="0.18"/>
<path d="M488.06 426.398H92.6883C85.5013 426.398 78.6087 429.161 73.5268 434.077C68.4449 438.994 65.5898 445.662 65.5898 452.615C65.5898 459.568 68.4449 466.237 73.5268 471.153C78.6087 476.07 85.5013 478.832 92.6883 478.832H488.06C491.909 478.833 495.714 478.038 499.22 476.502C502.727 474.966 505.854 472.723 508.392 469.923C509.54 468.66 510.56 467.293 511.44 465.843C512.122 464.729 512.713 463.566 513.208 462.363C514.859 458.386 515.475 454.078 515.005 449.817C514.534 445.556 512.99 441.471 510.508 437.921C508.026 434.372 504.682 431.465 500.769 429.456C496.856 427.448 492.493 426.399 488.064 426.401L488.06 426.398Z" fill="#D6D6E3" fill-opacity="0.18"/>
<path d="M450.43 151.164H122.293V170.58H450.43V151.164Z" fill="#D6D6E3" fill-opacity="0.18"/>
<path d="M283.351 145.344H289.372C290.821 145.344 292.257 145.62 293.596 146.157C294.935 146.693 296.152 147.48 297.177 148.472C298.202 149.464 299.016 150.641 299.57 151.937C300.125 153.233 300.41 154.621 300.41 156.024H272.312C272.312 153.192 273.475 150.475 275.546 148.472C277.616 146.47 280.423 145.344 283.351 145.344Z" fill="#D6D6E3" fill-opacity="0.18"/>
<path d="M513.581 464.648C504.803 474.71 495.309 484.165 485.169 492.946H95.5874C85.4469 484.165 75.9532 474.71 67.1758 464.648H513.581Z" fill="#3F3D56"/>
<path d="M322.992 366.633H257.398C257.045 366.629 256.693 366.683 256.358 366.79C255.646 367.003 255.023 367.432 254.582 368.012C254.14 368.593 253.902 369.295 253.902 370.016V470.268H326.497V370.015C326.496 369.57 326.405 369.13 326.229 368.719C326.052 368.308 325.794 367.935 325.468 367.621C325.143 367.307 324.757 367.058 324.331 366.889C323.906 366.719 323.452 366.632 322.992 366.633ZM298.167 416.094C298.17 417.72 297.615 419.301 296.591 420.591C295.614 421.842 294.255 422.765 292.707 423.229C291.158 423.694 289.498 423.676 287.961 423.18C286.423 422.683 285.085 421.732 284.136 420.461C283.186 419.19 282.673 417.662 282.668 416.094V404.462C282.668 402.474 283.485 400.567 284.938 399.161C286.392 397.754 288.363 396.965 290.418 396.965C292.473 396.965 294.445 397.754 295.898 399.161C297.351 400.567 298.168 402.474 298.168 404.462L298.167 416.094Z" fill="#2F2E41"/>
<path d="M253.68 467.062V476.73C253.679 477.231 253.884 477.712 254.249 478.067C254.613 478.422 255.109 478.624 255.626 478.627H324.766C325.283 478.622 325.778 478.42 326.142 478.065C326.506 477.71 326.711 477.231 326.713 476.73V467.062H253.68Z" fill="#3F3D56"/>
<path d="M431.606 210.18H151.226C148.817 210.183 146.507 211.109 144.803 212.757C143.098 214.404 142.138 216.638 142.133 218.969V402.016C142.135 404.348 143.093 406.585 144.798 408.234C146.503 409.884 148.815 410.811 151.226 410.813H431.606C434.017 410.811 436.329 409.884 438.034 408.234C439.739 406.585 440.698 404.348 440.7 402.016V218.968C440.694 216.637 439.734 214.404 438.029 212.756C436.325 211.109 434.015 210.183 431.606 210.18Z" fill="#3F3D56"/>
<path d="M429.265 216.531H153.563C152.274 216.533 151.038 217.03 150.126 217.913C149.215 218.795 148.703 219.992 148.703 221.24V399.756C148.705 401.002 149.218 402.197 150.129 403.078C151.04 403.96 152.275 404.455 153.563 404.457H429.265C430.553 404.455 431.789 403.959 432.7 403.078C433.611 402.197 434.123 401.002 434.125 399.755V221.243C434.125 219.995 433.613 218.799 432.702 217.916C431.791 217.033 430.555 216.536 429.266 216.534L429.265 216.531Z" fill="#515151"/>
<path d="M378.523 478.46L375.977 466.759C375.871 466.283 375.643 465.839 375.315 465.469C374.987 465.099 374.568 464.814 374.097 464.641C373.756 464.511 373.393 464.445 373.027 464.445H214.084C213.717 464.445 213.354 464.511 213.013 464.641C212.542 464.814 212.123 465.099 211.795 465.469C211.467 465.839 211.24 466.283 211.134 466.759L208.588 478.46C208.496 478.885 208.503 479.324 208.608 479.746C208.714 480.168 208.915 480.562 209.198 480.899C209.48 481.236 209.837 481.507 210.242 481.694C210.646 481.881 211.089 481.979 211.538 481.979H375.562C376.012 481.981 376.457 481.885 376.863 481.697C377.269 481.509 377.626 481.234 377.906 480.894C378.189 480.558 378.391 480.166 378.498 479.745C378.605 479.324 378.613 478.885 378.523 478.46Z" fill="#2F2E41"/>
<path d="M219.906 466.555H215.646C215.427 466.555 215.25 466.726 215.25 466.938V469.104C215.25 469.316 215.427 469.487 215.646 469.487H219.906C220.124 469.487 220.302 469.316 220.302 469.104V466.938C220.302 466.726 220.124 466.555 219.906 466.555Z" fill="#3F3D56"/>
<path d="M230.007 466.555H225.747C225.529 466.555 225.352 466.726 225.352 466.938V469.104C225.352 469.316 225.529 469.487 225.747 469.487H230.007C230.226 469.487 230.403 469.316 230.403 469.104V466.938C230.403 466.726 230.226 466.555 230.007 466.555Z" fill="#3F3D56"/>
<path d="M240.113 466.555H235.853C235.634 466.555 235.457 466.726 235.457 466.938V469.104C235.457 469.316 235.634 469.487 235.853 469.487H240.113C240.331 469.487 240.509 469.316 240.509 469.104V466.938C240.509 466.726 240.331 466.555 240.113 466.555Z" fill="#3F3D56"/>
<path d="M250.214 466.555H245.954C245.736 466.555 245.559 466.726 245.559 466.938V469.104C245.559 469.316 245.736 469.487 245.954 469.487H250.214C250.433 469.487 250.61 469.316 250.61 469.104V466.938C250.61 466.726 250.433 466.555 250.214 466.555Z" fill="#3F3D56"/>
<path d="M260.32 466.555H256.06C255.841 466.555 255.664 466.726 255.664 466.938V469.104C255.664 469.316 255.841 469.487 256.06 469.487H260.32C260.538 469.487 260.716 469.316 260.716 469.104V466.938C260.716 466.726 260.538 466.555 260.32 466.555Z" fill="#3F3D56"/>
<path d="M270.421 466.555H266.161C265.943 466.555 265.766 466.726 265.766 466.938V469.104C265.766 469.316 265.943 469.487 266.161 469.487H270.421C270.64 469.487 270.817 469.316 270.817 469.104V466.938C270.817 466.726 270.64 466.555 270.421 466.555Z" fill="#3F3D56"/>
<path d="M280.527 466.555H276.267C276.048 466.555 275.871 466.726 275.871 466.938V469.104C275.871 469.316 276.048 469.487 276.267 469.487H280.527C280.745 469.487 280.923 469.316 280.923 469.104V466.938C280.923 466.726 280.745 466.555 280.527 466.555Z" fill="#3F3D56"/>
<path d="M290.632 466.555H286.372C286.154 466.555 285.977 466.726 285.977 466.938V469.104C285.977 469.316 286.154 469.487 286.372 469.487H290.632C290.851 469.487 291.028 469.316 291.028 469.104V466.938C291.028 466.726 290.851 466.555 290.632 466.555Z" fill="#3F3D56"/>
<path d="M300.734 466.555H296.474C296.255 466.555 296.078 466.726 296.078 466.938V469.104C296.078 469.316 296.255 469.487 296.474 469.487H300.734C300.953 469.487 301.13 469.316 301.13 469.104V466.938C301.13 466.726 300.953 466.555 300.734 466.555Z" fill="#3F3D56"/>
<path d="M310.839 466.555H306.579C306.361 466.555 306.184 466.726 306.184 466.938V469.104C306.184 469.316 306.361 469.487 306.579 469.487H310.839C311.058 469.487 311.235 469.316 311.235 469.104V466.938C311.235 466.726 311.058 466.555 310.839 466.555Z" fill="#3F3D56"/>
<path d="M320.941 466.555H316.681C316.462 466.555 316.285 466.726 316.285 466.938V469.104C316.285 469.316 316.462 469.487 316.681 469.487H320.941C321.16 469.487 321.337 469.316 321.337 469.104V466.938C321.337 466.726 321.16 466.555 320.941 466.555Z" fill="#3F3D56"/>
<path d="M331.046 466.555H326.786C326.568 466.555 326.391 466.726 326.391 466.938V469.104C326.391 469.316 326.568 469.487 326.786 469.487H331.046C331.265 469.487 331.442 469.316 331.442 469.104V466.938C331.442 466.726 331.265 466.555 331.046 466.555Z" fill="#3F3D56"/>
<path d="M341.148 466.555H336.888C336.669 466.555 336.492 466.726 336.492 466.938V469.104C336.492 469.316 336.669 469.487 336.888 469.487H341.148C341.367 469.487 341.544 469.316 341.544 469.104V466.938C341.544 466.726 341.367 466.555 341.148 466.555Z" fill="#3F3D56"/>
<path d="M351.253 466.555H346.993C346.775 466.555 346.598 466.726 346.598 466.938V469.104C346.598 469.316 346.775 469.487 346.993 469.487H351.253C351.472 469.487 351.649 469.316 351.649 469.104V466.938C351.649 466.726 351.472 466.555 351.253 466.555Z" fill="#3F3D56"/>
<path d="M361.359 466.555H357.099C356.88 466.555 356.703 466.726 356.703 466.938V469.104C356.703 469.316 356.88 469.487 357.099 469.487H361.359C361.578 469.487 361.755 469.316 361.755 469.104V466.938C361.755 466.726 361.578 466.555 361.359 466.555Z" fill="#3F3D56"/>
<path d="M371.46 466.555H367.201C366.982 466.555 366.805 466.726 366.805 466.938V469.104C366.805 469.316 366.982 469.487 367.201 469.487H371.46C371.679 469.487 371.856 469.316 371.856 469.104V466.938C371.856 466.726 371.679 466.555 371.46 466.555Z" fill="#3F3D56"/>
<path d="M219.785 471.445H215.525C215.306 471.445 215.129 471.617 215.129 471.828V473.995C215.129 474.206 215.306 474.378 215.525 474.378H219.785C220.003 474.378 220.181 474.206 220.181 473.995V471.828C220.181 471.617 220.003 471.445 219.785 471.445Z" fill="#3F3D56"/>
<path d="M229.89 471.445H225.63C225.412 471.445 225.234 471.617 225.234 471.828V473.995C225.234 474.206 225.412 474.378 225.63 474.378H229.89C230.109 474.378 230.286 474.206 230.286 473.995V471.828C230.286 471.617 230.109 471.445 229.89 471.445Z" fill="#3F3D56"/>
<path d="M239.992 471.445H235.732C235.513 471.445 235.336 471.617 235.336 471.828V473.995C235.336 474.206 235.513 474.378 235.732 474.378H239.992C240.21 474.378 240.388 474.206 240.388 473.995V471.828C240.388 471.617 240.21 471.445 239.992 471.445Z" fill="#3F3D56"/>
<path d="M250.097 471.445H245.837C245.619 471.445 245.441 471.617 245.441 471.828V473.995C245.441 474.206 245.619 474.378 245.837 474.378H250.097C250.316 474.378 250.493 474.206 250.493 473.995V471.828C250.493 471.617 250.316 471.445 250.097 471.445Z" fill="#3F3D56"/>
<path d="M260.199 471.445H255.939C255.72 471.445 255.543 471.617 255.543 471.828V473.995C255.543 474.206 255.72 474.378 255.939 474.378H260.199C260.417 474.378 260.595 474.206 260.595 473.995V471.828C260.595 471.617 260.417 471.445 260.199 471.445Z" fill="#3F3D56"/>
<path d="M270.304 471.445H266.044C265.826 471.445 265.648 471.617 265.648 471.828V473.995C265.648 474.206 265.826 474.378 266.044 474.378H270.304C270.523 474.378 270.7 474.206 270.7 473.995V471.828C270.7 471.617 270.523 471.445 270.304 471.445Z" fill="#3F3D56"/>
<path d="M280.406 471.445H276.146C275.927 471.445 275.75 471.617 275.75 471.828V473.995C275.75 474.206 275.927 474.378 276.146 474.378H280.406C280.624 474.378 280.802 474.206 280.802 473.995V471.828C280.802 471.617 280.624 471.445 280.406 471.445Z" fill="#3F3D56"/>
<path d="M290.511 471.445H286.251C286.033 471.445 285.855 471.617 285.855 471.828V473.995C285.855 474.206 286.033 474.378 286.251 474.378H290.511C290.73 474.378 290.907 474.206 290.907 473.995V471.828C290.907 471.617 290.73 471.445 290.511 471.445Z" fill="#3F3D56"/>
<path d="M300.617 471.445H296.357C296.138 471.445 295.961 471.617 295.961 471.828V473.995C295.961 474.206 296.138 474.378 296.357 474.378H300.617C300.835 474.378 301.013 474.206 301.013 473.995V471.828C301.013 471.617 300.835 471.445 300.617 471.445Z" fill="#3F3D56"/>
<path d="M310.718 471.445H306.458C306.24 471.445 306.062 471.617 306.062 471.828V473.995C306.062 474.206 306.24 474.378 306.458 474.378H310.718C310.937 474.378 311.114 474.206 311.114 473.995V471.828C311.114 471.617 310.937 471.445 310.718 471.445Z" fill="#3F3D56"/>
<path d="M320.824 471.445H316.564C316.345 471.445 316.168 471.617 316.168 471.828V473.995C316.168 474.206 316.345 474.378 316.564 474.378H320.824C321.042 474.378 321.22 474.206 321.22 473.995V471.828C321.22 471.617 321.042 471.445 320.824 471.445Z" fill="#3F3D56"/>
<path d="M330.925 471.445H326.665C326.447 471.445 326.27 471.617 326.27 471.828V473.995C326.27 474.206 326.447 474.378 326.665 474.378H330.925C331.144 474.378 331.321 474.206 331.321 473.995V471.828C331.321 471.617 331.144 471.445 330.925 471.445Z" fill="#3F3D56"/>
<path d="M341.031 471.445H336.771C336.552 471.445 336.375 471.617 336.375 471.828V473.995C336.375 474.206 336.552 474.378 336.771 474.378H341.031C341.249 474.378 341.427 474.206 341.427 473.995V471.828C341.427 471.617 341.249 471.445 341.031 471.445Z" fill="#3F3D56"/>
<path d="M351.132 471.445H346.872C346.654 471.445 346.477 471.617 346.477 471.828V473.995C346.477 474.206 346.654 474.378 346.872 474.378H351.132C351.351 474.378 351.528 474.206 351.528 473.995V471.828C351.528 471.617 351.351 471.445 351.132 471.445Z" fill="#3F3D56"/>
<path d="M361.238 471.445H356.978C356.759 471.445 356.582 471.617 356.582 471.828V473.995C356.582 474.206 356.759 474.378 356.978 474.378H361.238C361.456 474.378 361.634 474.206 361.634 473.995V471.828C361.634 471.617 361.456 471.445 361.238 471.445Z" fill="#3F3D56"/>
<path d="M371.339 471.445H367.079C366.861 471.445 366.684 471.617 366.684 471.828V473.995C366.684 474.206 366.861 474.378 367.079 474.378H371.339C371.558 474.378 371.735 474.206 371.735 473.995V471.828C371.735 471.617 371.558 471.445 371.339 471.445Z" fill="#3F3D56"/>
<path d="M303.648 477.312H264.025C263.806 477.312 263.629 477.484 263.629 477.695V479.862C263.629 480.074 263.806 480.245 264.025 480.245H303.648C303.867 480.245 304.044 480.074 304.044 479.862V477.695C304.044 477.484 303.867 477.312 303.648 477.312Z" fill="#3F3D56"/>
<path d="M415.409 241.126H157.436C157.164 241.126 156.903 241.021 156.711 240.835C156.518 240.649 156.41 240.397 156.41 240.133C156.41 239.87 156.518 239.618 156.711 239.431C156.903 239.245 157.164 239.141 157.436 239.141H415.409C415.681 239.141 415.942 239.245 416.135 239.431C416.327 239.618 416.435 239.87 416.435 240.133C416.435 240.397 416.327 240.649 416.135 240.835C415.942 241.021 415.681 241.126 415.409 241.126Z" fill="#3F3D56"/>
<path d="M174.996 234.071C178.317 234.071 181.008 231.409 181.008 228.126C181.008 224.842 178.317 222.18 174.996 222.18C171.676 222.18 168.984 224.842 168.984 228.126C168.984 231.409 171.676 234.071 174.996 234.071Z" fill="#3F3D56"/>
<path d="M195.766 234.071C199.086 234.071 201.778 231.409 201.778 228.126C201.778 224.842 199.086 222.18 195.766 222.18C192.446 222.18 189.754 224.842 189.754 228.126C189.754 231.409 192.446 234.071 195.766 234.071Z" fill="#3F3D56"/>
<path d="M216.535 234.071C219.856 234.071 222.547 231.409 222.547 228.126C222.547 224.842 219.856 222.18 216.535 222.18C213.215 222.18 210.523 224.842 210.523 228.126C210.523 231.409 213.215 234.071 216.535 234.071Z" fill="#3F3D56"/>
<path d="M402.901 223.649H388.149C387.858 223.656 387.582 223.774 387.379 223.975C387.176 224.177 387.062 224.447 387.062 224.729C387.062 225.011 387.176 225.281 387.379 225.483C387.582 225.684 387.858 225.802 388.149 225.809H402.901C403.05 225.813 403.199 225.788 403.338 225.735C403.477 225.683 403.603 225.604 403.71 225.503C403.817 225.403 403.902 225.282 403.96 225.149C404.018 225.016 404.048 224.873 404.048 224.729C404.048 224.585 404.018 224.442 403.96 224.309C403.902 224.176 403.817 224.055 403.71 223.955C403.603 223.854 403.477 223.775 403.338 223.723C403.199 223.67 403.05 223.645 402.901 223.649Z" fill="#3F3D56"/>
<path d="M402.901 227.703H388.149C387.858 227.711 387.582 227.828 387.379 228.03C387.176 228.231 387.062 228.502 387.062 228.783C387.062 229.065 387.176 229.335 387.379 229.537C387.582 229.739 387.858 229.856 388.149 229.863H402.901C403.197 229.863 403.481 229.75 403.69 229.547C403.9 229.345 404.017 229.07 404.017 228.783C404.017 228.497 403.9 228.222 403.69 228.02C403.481 227.817 403.197 227.703 402.901 227.703Z" fill="#3F3D56"/>
<path d="M402.901 231.766H388.149C387.858 231.774 387.582 231.891 387.379 232.092C387.176 232.294 387.062 232.565 387.062 232.846C387.062 233.128 387.176 233.398 387.379 233.6C387.582 233.802 387.858 233.919 388.149 233.926H402.901C403.05 233.93 403.199 233.905 403.338 233.853C403.477 233.8 403.603 233.721 403.71 233.62C403.817 233.52 403.902 233.399 403.96 233.266C404.018 233.133 404.048 232.991 404.048 232.846C404.048 232.702 404.018 232.559 403.96 232.426C403.902 232.293 403.817 232.173 403.71 232.072C403.603 231.971 403.477 231.892 403.338 231.84C403.199 231.787 403.05 231.762 402.901 231.766Z" fill="#3F3D56"/>
<path d="M180.253 264.188H173.805C172.515 264.188 171.469 265.199 171.469 266.448V267.558C171.469 268.806 172.515 269.818 173.805 269.818H180.253C181.543 269.818 182.589 268.806 182.589 267.558V266.448C182.589 265.199 181.543 264.188 180.253 264.188Z" fill="#262626" fill-opacity="0.68"/>
<path d="M240.878 264.188H234.43C233.14 264.188 232.094 265.199 232.094 266.448V267.558C232.094 268.806 233.14 269.818 234.43 269.818H240.878C242.168 269.818 243.214 268.806 243.214 267.558V266.448C243.214 265.199 242.168 264.188 240.878 264.188Z" fill="#262626" fill-opacity="0.68"/>
<path d="M258.054 264.188H251.606C250.315 264.188 249.27 265.199 249.27 266.448V267.558C249.27 268.806 250.315 269.818 251.606 269.818H258.054C259.344 269.818 260.39 268.806 260.39 267.558V266.448C260.39 265.199 259.344 264.188 258.054 264.188Z" fill="#262626" fill-opacity="0.68"/>
<path d="M224.389 263.719H190.297C189.007 263.719 187.961 264.731 187.961 265.979V267.089C187.961 268.337 189.007 269.349 190.297 269.349H224.389C225.679 269.349 226.725 268.337 226.725 267.089V265.979C226.725 264.731 225.679 263.719 224.389 263.719Z" fill="#262626" fill-opacity="0.68"/>
<path d="M305.217 263.719H271.125C269.835 263.719 268.789 264.731 268.789 265.979V267.089C268.789 268.337 269.835 269.349 271.125 269.349H305.217C306.507 269.349 307.553 268.337 307.553 267.089V265.979C307.553 264.731 306.507 263.719 305.217 263.719Z" fill="#262626" fill-opacity="0.68"/>
<path d="M196.421 276.898H189.973C188.683 276.898 187.637 277.91 187.637 279.158V280.269C187.637 281.517 188.683 282.529 189.973 282.529H196.421C197.711 282.529 198.757 281.517 198.757 280.269V279.158C198.757 277.91 197.711 276.898 196.421 276.898Z" fill="#262626" fill-opacity="0.68"/>
<path d="M257.042 276.898H250.594C249.304 276.898 248.258 277.91 248.258 279.158V280.269C248.258 281.517 249.304 282.529 250.594 282.529H257.042C258.332 282.529 259.378 281.517 259.378 280.269V279.158C259.378 277.91 258.332 276.898 257.042 276.898Z" fill="#262626" fill-opacity="0.68"/>
<path d="M274.218 276.898H267.77C266.479 276.898 265.434 277.91 265.434 279.158V280.269C265.434 281.517 266.479 282.529 267.77 282.529H274.218C275.508 282.529 276.554 281.517 276.554 280.269V279.158C276.554 277.91 275.508 276.898 274.218 276.898Z" fill="#262626" fill-opacity="0.68"/>
<path d="M240.553 276.43H206.461C205.171 276.43 204.125 277.442 204.125 278.69V279.8C204.125 281.048 205.171 282.06 206.461 282.06H240.553C241.843 282.06 242.889 281.048 242.889 279.8V278.69C242.889 277.442 241.843 276.43 240.553 276.43Z" fill="#262626" fill-opacity="0.68"/>
<path d="M321.385 276.43H287.293C286.003 276.43 284.957 277.442 284.957 278.69V279.8C284.957 281.048 286.003 282.06 287.293 282.06H321.385C322.675 282.06 323.721 281.048 323.721 279.8V278.69C323.721 277.442 322.675 276.43 321.385 276.43Z" fill="#262626" fill-opacity="0.68"/>
<path d="M212.585 289.609H206.137C204.847 289.609 203.801 290.621 203.801 291.869V292.98C203.801 294.228 204.847 295.24 206.137 295.24H212.585C213.875 295.24 214.921 294.228 214.921 292.98V291.869C214.921 290.621 213.875 289.609 212.585 289.609Z" fill="#262626" fill-opacity="0.68"/>
<path d="M273.21 289.609H266.762C265.472 289.609 264.426 290.621 264.426 291.869V292.98C264.426 294.228 265.472 295.24 266.762 295.24H273.21C274.5 295.24 275.546 294.228 275.546 292.98V291.869C275.546 290.621 274.5 289.609 273.21 289.609Z" fill="#262626" fill-opacity="0.68"/>
<path d="M290.386 289.609H283.938C282.647 289.609 281.602 290.621 281.602 291.869V292.98C281.602 294.228 282.647 295.24 283.938 295.24H290.386C291.676 295.24 292.722 294.228 292.722 292.98V291.869C292.722 290.621 291.676 289.609 290.386 289.609Z" fill="#262626" fill-opacity="0.68"/>
<path d="M256.721 289.133H222.629C221.339 289.133 220.293 290.145 220.293 291.393V292.503C220.293 293.751 221.339 294.763 222.629 294.763H256.721C258.011 294.763 259.057 293.751 259.057 292.503V291.393C259.057 290.145 258.011 289.133 256.721 289.133Z" fill="#262626" fill-opacity="0.68"/>
<path d="M337.549 289.133H303.457C302.167 289.133 301.121 290.145 301.121 291.393V292.503C301.121 293.751 302.167 294.763 303.457 294.763H337.549C338.839 294.763 339.885 293.751 339.885 292.503V291.393C339.885 290.145 338.839 289.133 337.549 289.133Z" fill="#262626" fill-opacity="0.68"/>
<path d="M228.753 302.312H222.305C221.015 302.312 219.969 303.324 219.969 304.573V305.683C219.969 306.931 221.015 307.943 222.305 307.943H228.753C230.043 307.943 231.089 306.931 231.089 305.683V304.573C231.089 303.324 230.043 302.312 228.753 302.312Z" fill="#262626" fill-opacity="0.68"/>
<path d="M289.374 302.312H282.926C281.636 302.312 280.59 303.324 280.59 304.573V305.683C280.59 306.931 281.636 307.943 282.926 307.943H289.374C290.664 307.943 291.71 306.931 291.71 305.683V304.573C291.71 303.324 290.664 302.312 289.374 302.312Z" fill="#262626" fill-opacity="0.68"/>
<path d="M306.55 302.312H300.102C298.811 302.312 297.766 303.324 297.766 304.573V305.683C297.766 306.931 298.811 307.943 300.102 307.943H306.55C307.84 307.943 308.886 306.931 308.886 305.683V304.573C308.886 303.324 307.84 302.312 306.55 302.312Z" fill="#262626" fill-opacity="0.68"/>
<path d="M272.885 301.844H238.793C237.503 301.844 236.457 302.856 236.457 304.104V305.214C236.457 306.462 237.503 307.474 238.793 307.474H272.885C274.175 307.474 275.221 306.462 275.221 305.214V304.104C275.221 302.856 274.175 301.844 272.885 301.844Z" fill="#262626" fill-opacity="0.68"/>
<path d="M240.878 352.844H234.43C233.14 352.844 232.094 353.856 232.094 355.104V356.214C232.094 357.462 233.14 358.474 234.43 358.474H240.878C242.168 358.474 243.214 357.462 243.214 356.214V355.104C243.214 353.856 242.168 352.844 240.878 352.844Z" fill="#262626" fill-opacity="0.68"/>
<path d="M258.054 352.844H251.606C250.315 352.844 249.27 353.856 249.27 355.104V356.214C249.27 357.462 250.315 358.474 251.606 358.474H258.054C259.344 358.474 260.39 357.462 260.39 356.214V355.104C260.39 353.856 259.344 352.844 258.054 352.844Z" fill="#262626" fill-opacity="0.68"/>
<path d="M305.217 353.312H271.125C269.835 353.312 268.789 354.324 268.789 355.573V356.683C268.789 357.931 269.835 358.943 271.125 358.943H305.217C306.507 358.943 307.553 357.931 307.553 356.683V355.573C307.553 354.324 306.507 353.312 305.217 353.312Z" fill="#262626" fill-opacity="0.68"/>
<path d="M180.253 352.844H173.805C172.515 352.844 171.469 353.856 171.469 355.104V356.214C171.469 357.462 172.515 358.474 173.805 358.474H180.253C181.543 358.474 182.589 357.462 182.589 356.214V355.104C182.589 353.856 181.543 352.844 180.253 352.844Z" fill="#262626" fill-opacity="0.68"/>
<path d="M224.389 353.312H190.297C189.007 353.312 187.961 354.324 187.961 355.573V356.683C187.961 357.931 189.007 358.943 190.297 358.943H224.389C225.679 358.943 226.725 357.931 226.725 356.683V355.573C226.725 354.324 225.679 353.312 224.389 353.312Z" fill="#262626" fill-opacity="0.68"/>
<path d="M196.421 340.133H189.973C188.683 340.133 187.637 341.145 187.637 342.393V343.503C187.637 344.751 188.683 345.763 189.973 345.763H196.421C197.711 345.763 198.757 344.751 198.757 343.503V342.393C198.757 341.145 197.711 340.133 196.421 340.133Z" fill="#262626" fill-opacity="0.68"/>
<path d="M257.042 340.133H250.594C249.304 340.133 248.258 341.145 248.258 342.393V343.503C248.258 344.751 249.304 345.763 250.594 345.763H257.042C258.332 345.763 259.378 344.751 259.378 343.503V342.393C259.378 341.145 258.332 340.133 257.042 340.133Z" fill="#262626" fill-opacity="0.68"/>
<path d="M274.218 340.133H267.77C266.479 340.133 265.434 341.145 265.434 342.393V343.503C265.434 344.751 266.479 345.763 267.77 345.763H274.218C275.508 345.763 276.554 344.751 276.554 343.503V342.393C276.554 341.145 275.508 340.133 274.218 340.133Z" fill="#262626" fill-opacity="0.68"/>
<path d="M240.553 340.609H206.461C205.171 340.609 204.125 341.621 204.125 342.869V343.98C204.125 345.228 205.171 346.24 206.461 346.24H240.553C241.843 346.24 242.889 345.228 242.889 343.98V342.869C242.889 341.621 241.843 340.609 240.553 340.609Z" fill="#262626" fill-opacity="0.68"/>
<path d="M212.585 327.43H206.137C204.847 327.43 203.801 328.442 203.801 329.69V330.8C203.801 332.048 204.847 333.06 206.137 333.06H212.585C213.875 333.06 214.921 332.048 214.921 330.8V329.69C214.921 328.442 213.875 327.43 212.585 327.43Z" fill="#262626" fill-opacity="0.68"/>
<path d="M273.21 327.43H266.762C265.472 327.43 264.426 328.442 264.426 329.69V330.8C264.426 332.048 265.472 333.06 266.762 333.06H273.21C274.5 333.06 275.546 332.048 275.546 330.8V329.69C275.546 328.442 274.5 327.43 273.21 327.43Z" fill="#262626" fill-opacity="0.68"/>
<path d="M290.386 327.43H283.938C282.647 327.43 281.602 328.442 281.602 329.69V330.8C281.602 332.048 282.647 333.06 283.938 333.06H290.386C291.676 333.06 292.722 332.048 292.722 330.8V329.69C292.722 328.442 291.676 327.43 290.386 327.43Z" fill="#262626" fill-opacity="0.68"/>
<path d="M256.721 327.898H222.629C221.339 327.898 220.293 328.91 220.293 330.158V331.269C220.293 332.517 221.339 333.529 222.629 333.529H256.721C258.011 333.529 259.057 332.517 259.057 331.269V330.158C259.057 328.91 258.011 327.898 256.721 327.898Z" fill="#262626" fill-opacity="0.68"/>
<path d="M228.753 314.719H222.305C221.015 314.719 219.969 315.731 219.969 316.979V318.089C219.969 319.337 221.015 320.349 222.305 320.349H228.753C230.043 320.349 231.089 319.337 231.089 318.089V316.979C231.089 315.731 230.043 314.719 228.753 314.719Z" fill="#262626" fill-opacity="0.68"/>
<path d="M289.374 314.719H282.926C281.636 314.719 280.59 315.731 280.59 316.979V318.089C280.59 319.337 281.636 320.349 282.926 320.349H289.374C290.664 320.349 291.71 319.337 291.71 318.089V316.979C291.71 315.731 290.664 314.719 289.374 314.719Z" fill="#262626" fill-opacity="0.68"/>
<path d="M306.55 314.719H300.102C298.811 314.719 297.766 315.731 297.766 316.979V318.089C297.766 319.337 298.811 320.349 300.102 320.349H306.55C307.84 320.349 308.886 319.337 308.886 318.089V316.979C308.886 315.731 307.84 314.719 306.55 314.719Z" fill="#262626" fill-opacity="0.68"/>
<path d="M272.885 315.188H238.793C237.503 315.188 236.457 316.199 236.457 317.448V318.558C236.457 319.806 237.503 320.818 238.793 320.818H272.885C274.175 320.818 275.221 319.806 275.221 318.558V317.448C275.221 316.199 274.175 315.188 272.885 315.188Z" fill="#262626" fill-opacity="0.68"/>
<path opacity="0.2" d="M206.84 464.604L215.421 432.547L223.002 460.206L206.84 464.604Z" fill="black"/>
<path d="M435.293 443.719C432.221 484.658 435.404 502.683 418.45 536.436C403.025 543.742 386.957 549.703 370.438 554.249C368.72 554.72 366.999 555.176 365.275 555.618C343.544 561.181 321.221 564.294 298.751 564.895C297.579 564.924 296.428 564.944 295.316 564.963C294.922 564.973 294.539 564.983 294.154 564.983C292.891 564.992 291.64 565.003 290.375 565.003C266.696 565.02 243.103 562.253 220.113 556.763C217.81 556.215 215.516 555.638 213.233 555.033C201.205 551.856 189.403 547.928 177.9 543.274C171.838 540.83 165.883 538.194 160.036 535.365C158.712 534.72 157.389 534.075 156.085 533.41C149.386 522.013 145.577 508.152 145.496 491.495C150.135 462.791 425.048 418.969 435.293 443.719Z" fill="#090814"/>
<path opacity="0.2" d="M435.287 450.723C435.444 448.189 435.62 445.571 435.824 442.845C425.579 418.094 150.665 461.914 146.027 490.616C146.04 493.247 146.156 495.8 146.352 498.293C157.583 469.967 418.755 428.318 435.287 450.723Z" fill="black"/>
<path d="M389.299 515.424L363.88 515.428C361.79 515.428 360.035 517.022 359.85 519.098C358.949 529.194 356.501 556.69 356.498 557.506C356.496 558.338 376.225 552.594 382.857 550.64C384.198 550.245 385.227 549.186 385.596 547.842L393.123 520.435C393.819 517.903 391.927 515.424 389.299 515.424Z" fill="#ED9DA0"/>
<path d="M387.04 425.997L392.095 507.602L393.076 518.295L385.983 521.05L378.488 523.707L370.59 526.401L363.06 528.668L357.11 502.15L341.437 434.983L387.04 425.997Z" fill="#ED9DA0"/>
<path d="M318.348 285.199C319.128 282.874 322.589 282.191 324.661 283.592C326.733 284.993 327.441 287.742 327.038 290.156C326.636 292.57 325.326 294.739 324.041 296.844C314.436 312.576 301.815 357.057 292.211 372.788C297.891 376.446 305.568 376.993 311.742 374.18C315.016 379.646 321.678 383.033 328.191 382.542C334.704 382.051 340.743 377.706 343.101 371.815C341.526 375.326 339.951 378.836 338.376 382.347C346.302 379.844 352.831 373.529 355.417 365.865C353.692 370.994 351.968 376.123 350.243 381.252C361.078 374.747 369.252 333.183 365.545 320.306C365.41 319.837 365.603 319.342 366.027 319.081L366.042 319.072C366.168 318.994 366.28 318.894 366.367 318.776C372.243 310.806 369.971 299.49 365.012 290.924C360.016 282.295 352.663 275.035 348.265 266.106C342.427 254.251 341.874 239.686 332.638 230.06C326.778 223.953 318.17 220.852 309.607 219.933C301.044 219.013 292.4 220.068 283.853 221.122L284.445 219.793C277.09 214.605 266.391 216.169 258.865 221.122C251.339 226.075 246.263 233.728 241.397 241.168C236.939 247.983 232.481 254.799 228.023 261.614C223.657 268.289 206.711 297.663 205.138 305.414C203.565 313.165 205.495 322.102 211.978 326.908C212.799 322.782 213.62 318.656 214.441 314.53L213.665 315.178C219.17 334.54 219.14 363.185 201.152 373.22C209.035 375.447 218.052 373.421 224.111 368.06L212.596 380.513C218.815 380.409 224.985 378.411 230.014 374.873L221.202 384.977L244.738 373.296L239.842 385.294C249.652 383.513 259.461 381.732 269.271 379.952" fill="#090814"/>
<path d="M243.245 481.812L231.167 527.327L216.973 555.969C216.973 555.969 253.458 566.569 300.923 564.993C348.388 563.417 354.5 558.5 354.5 558.5L347.124 516.367L243.245 481.812Z" fill="#373737"/>
<path d="M216.434 481.053L201.17 498.985C201.17 498.985 200.02 523.406 216.434 523.406C232.848 523.406 257.119 477.643 257.119 477.643L240.048 436.468L212.53 430.023L216.434 481.053Z" fill="#ED9DA0"/>
<path d="M340.609 296.742C341.964 268.548 319.484 244.628 290.398 243.314C261.313 242.001 236.636 263.792 235.281 291.986C234.182 314.852 248.761 334.904 269.826 342.369L276.872 408.05L330.788 368.468C330.788 368.468 320.241 354.118 314.978 338.237C329.629 329.736 339.755 314.515 340.609 296.742Z" fill="#ED9DA0"/>
<path d="M321.92 352.336C321.92 352.336 302.735 421.742 271.56 360.665L230.355 379.104C230.355 379.104 233.233 483.676 241.866 498.483C241.866 498.483 232.754 512.364 243.785 515.14C254.816 517.917 249.06 513.289 254.816 517.917C260.571 522.544 272.082 514.678 272.082 514.678C272.082 514.678 330.305 536.102 347.476 519.374V450.079C347.476 450.079 376.638 424.449 395.822 442.958C395.822 442.958 391.985 384.194 370.403 371.238C348.82 358.282 321.92 352.336 321.92 352.336Z" fill="#34D399"/>
<path d="M239.367 383.862L230.447 379.016C230.447 379.016 195.975 437.405 199.832 445.713C203.689 454.021 249.009 453.56 249.009 453.56L239.367 383.862Z" fill="#34D399"/>
<path d="M283.887 221.263C292.43 220.207 301.071 219.15 309.631 220.071C318.191 220.993 326.796 224.099 332.653 230.219C341.885 239.863 342.438 254.456 348.274 266.334C352.67 275.28 360.021 282.554 365.015 291.2C369.973 299.782 372.243 311.12 366.369 319.105C366.282 319.224 366.171 319.324 366.045 319.402C365.616 319.666 365.414 320.176 365.566 320.646C369.363 332.399 364.084 346.388 353.267 352.898C354.99 347.759 356.714 342.62 358.438 337.481C355.854 345.16 347.604 378.622 339.681 381.129C341.256 377.612 342.83 374.095 344.404 370.577C342.047 376.48 336.011 380.833 329.5 381.325C322.989 381.817 316.329 378.424 313.057 372.947C306.886 375.765 299.211 375.217 293.533 371.553C303.134 355.79 314.458 312.894 324.059 297.131C325.344 295.022 326.653 292.849 327.055 290.43C327.458 288.012 326.751 285.257 324.679 283.854C322.608 282.45 319.148 283.134 318.369 285.464" fill="#090814"/>
<path d="M318.765 285.01L268.254 246.219L231.977 305.251V268.004L274.027 229.133L307.701 232.365L318.765 285.01Z" fill="#090814"/>
<path d="M111.518 412.243C120.042 409.157 142.651 409.016 152.814 412.341C154.788 412.987 155.992 414.958 155.662 416.982L155.275 419.385C156.157 419.25 157.018 418.998 157.832 418.622C160.243 417.516 164.995 416.006 169.817 418.346C173.186 419.98 175.57 423.082 176.422 426.7C178.458 435.352 173.488 440.174 173.488 440.174L166.868 446.384C161.321 451.58 155.264 456.22 148.788 460.224L148.657 460.303L150.941 446.201C152.292 448.516 155.32 449.259 157.61 447.842C163.397 444.257 172.844 437.088 171.641 429.016C170.803 423.388 167.628 422.209 164.587 422.48C161.184 422.786 158.226 424.916 156.79 427.975C156.445 428.706 155.876 429.307 155.167 429.701L153.46 430.635L148.625 460.524C148.409 461.865 147.547 463.028 146.319 463.633C134.552 469.417 121.797 466.523 117.382 465.215C116.373 464.914 115.506 464.262 114.96 463.368L114.003 461.819C113.67 461.287 113.469 460.683 113.399 460.066L108.753 416.629C108.55 414.712 109.691 412.91 111.525 412.243L111.518 412.243Z" fill="#090814"/>
<path d="M395.414 442.578C395.414 442.578 395.008 444.148 394.197 444.932C393.386 445.717 392.98 445.325 390.953 445.717C388.925 446.109 388 445.717 388 445.717" stroke="#34D399"/>
<path d="M157.871 451.372C148.823 438.722 156.015 435.347 164.657 429.635C173.298 423.923 168.307 424.922 184.529 432.38C188.584 436.693 195.188 441.508 196.002 447.631L233.598 501.701L206.007 518.698L171.874 463.595C166.217 460.677 161.414 456.486 157.871 451.38V451.372Z" fill="#ED9DA0"/>
<path d="M156.495 446.288C151.83 441.267 154.698 435.637 159.793 431.207C164.888 426.776 170.282 425.221 174.947 430.243C179.612 435.265 179.264 442.928 174.169 447.359C169.073 451.789 161.161 451.31 156.495 446.288Z" fill="#ED9DA0"/>
<path d="M153.019 412.812C152.409 417.458 143.2 421.123 131.91 421.071C121.531 421.079 112.893 417.945 111.139 413.846C111.706 413.655 112.299 413.551 112.898 413.537L152.048 412.74C152.373 412.736 152.698 412.761 153.019 412.812Z" fill="#3F3D56"/>
<path d="M154.927 437.631C155.636 437.053 158.087 438.901 160.528 441.89C162.78 444.628 164.264 447.407 164.136 448.522C163.989 448.403 163.848 448.263 163.716 448.107L155.129 437.899C155.058 437.814 154.991 437.724 154.927 437.631Z" fill="#E18E91"/>
<path d="M169.021 446.505C169.398 447.633 169.076 449.146 168.271 449.939C167.535 450.681 166.639 450.565 166.143 449.733C166.166 449.648 166.199 449.582 166.24 449.536C166.24 449.536 167.497 450.035 168.271 448.466C169.045 446.896 168.945 446.557 168.945 446.557C168.968 446.533 168.993 446.516 169.021 446.505Z" fill="#E18E91"/>
<path d="M173.884 444.145C174.261 445.274 173.94 446.786 173.134 447.579C172.399 448.322 171.502 448.206 171.006 447.374C171.029 447.289 171.062 447.223 171.103 447.176C171.103 447.176 172.36 447.676 173.134 446.107C173.908 444.537 173.808 444.198 173.808 444.198C173.831 444.174 173.856 444.156 173.884 444.145Z" fill="#E18E91"/>
<path d="M178.751 441.012C179.128 442.141 178.807 443.653 178.001 444.447C177.266 445.189 176.369 445.073 175.874 444.241C175.897 444.156 175.929 444.09 175.97 444.044C175.97 444.044 177.227 444.543 178.001 442.974C178.775 441.404 178.676 441.065 178.676 441.065C178.698 441.041 178.724 441.023 178.751 441.012Z" fill="#E18E91"/>
<path d="M164.153 448.856C164.531 449.985 164.209 451.497 163.404 452.29C162.668 453.033 161.771 452.917 161.276 452.085C161.299 452 161.332 451.933 161.373 451.887C161.373 451.887 162.629 452.387 163.404 450.817C164.178 449.248 164.078 448.909 164.078 448.909C164.101 448.885 164.126 448.867 164.153 448.856Z" fill="#E18E91"/>
<path d="M158.981 434.496C159.683 433.909 162.271 435.966 164.895 439.235C167.314 442.231 168.948 445.241 168.862 446.421C168.707 446.288 168.556 446.134 168.415 445.963L159.198 434.788C159.122 434.695 159.049 434.597 158.981 434.496Z" fill="#E18E91"/>
<path d="M163.846 432.14C164.552 431.558 167.051 433.479 169.556 436.565C171.865 439.393 173.401 442.252 173.288 443.389C173.138 443.266 172.994 443.121 172.859 442.96L164.053 432.416C163.981 432.328 163.911 432.236 163.846 432.14Z" fill="#E18E91"/>
<path d="M167.901 429.359C169.276 428.369 172.544 429.821 175.354 432.721C177.952 435.373 179.287 438.354 178.647 439.813C178.455 439.715 178.28 439.589 178.126 439.439L168.125 429.625C168.043 429.543 167.968 429.453 167.901 429.359Z" fill="#E18E91"/>
<path d="M128.741 443.46C128.686 443.46 128.631 443.45 128.579 443.433L122.009 441.245C121.93 441.218 121.858 441.174 121.802 441.114C121.745 441.054 121.703 440.981 121.683 440.903C121.663 440.825 121.663 440.742 121.683 440.663C121.703 440.584 121.745 440.512 121.802 440.453L126.687 435.306C126.731 435.256 126.784 435.215 126.845 435.185C126.906 435.155 126.972 435.138 127.041 435.134C127.109 435.13 127.177 435.138 127.241 435.16C127.305 435.182 127.364 435.217 127.414 435.262C127.465 435.306 127.505 435.36 127.533 435.42C127.561 435.48 127.577 435.545 127.578 435.611C127.579 435.677 127.567 435.742 127.542 435.803C127.517 435.864 127.479 435.92 127.431 435.967L123.067 440.563L128.907 442.509C129.02 442.546 129.115 442.621 129.176 442.72C129.237 442.819 129.26 442.936 129.24 443.05C129.221 443.164 129.161 443.267 129.07 443.343C128.979 443.417 128.864 443.459 128.745 443.46H128.741Z" fill="#34D399"/>
<path d="M137.747 441.678C137.646 441.678 137.548 441.648 137.466 441.594C137.382 441.54 137.317 441.463 137.28 441.372C137.242 441.282 137.233 441.183 137.254 441.088C137.274 440.993 137.324 440.906 137.396 440.839L141.836 436.685L135.871 434.307C135.748 434.258 135.649 434.163 135.598 434.043C135.546 433.924 135.546 433.789 135.597 433.669C135.648 433.549 135.746 433.454 135.869 433.405C135.993 433.355 136.132 433.355 136.255 433.404L142.933 436.067C143.011 436.097 143.08 436.146 143.134 436.208C143.187 436.271 143.224 436.345 143.24 436.425C143.256 436.505 143.251 436.587 143.226 436.665C143.201 436.742 143.156 436.812 143.096 436.87L138.101 441.541C138.007 441.629 137.881 441.678 137.75 441.678H137.747Z" fill="#34D399"/>
<path d="M130.122 446.453C130.071 446.453 130.022 446.445 129.974 446.431C129.91 446.412 129.852 446.381 129.8 446.34C129.749 446.299 129.706 446.249 129.676 446.192C129.645 446.136 129.625 446.074 129.62 446.009C129.613 445.946 129.62 445.882 129.64 445.82L134.302 431.158C134.322 431.096 134.353 431.039 134.395 430.99C134.438 430.94 134.49 430.899 134.549 430.869C134.607 430.839 134.671 430.82 134.738 430.815C134.803 430.809 134.87 430.815 134.933 430.834C134.997 430.853 135.056 430.884 135.107 430.925C135.158 430.966 135.201 431.016 135.232 431.073C135.263 431.13 135.282 431.192 135.288 431.256C135.294 431.319 135.288 431.384 135.268 431.446L130.605 446.108C130.573 446.208 130.509 446.295 130.423 446.357C130.336 446.419 130.23 446.453 130.122 446.453Z" fill="#34D399"/>
<path d="M158.572 453.567L155.131 448.684L157.709 448.018L160.6 451.997L158.572 453.567Z" fill="#090814"/>
</g>
<defs>
<clipPath id="clip0_645_8840">
<rect width="584" height="565" fill="white"/>
</clipPath>
</defs>
</svg>
