<svg width="590" height="645" viewBox="0 0 590 645" fill="none" xmlns="http://www.w3.org/2000/svg">
<path d="M299.574 23.8836C285.95 1.14547 258.995 0.0857723 258.995 0.0857723C258.995 0.0857723 232.73 -3.23181 215.88 31.3987C200.176 63.6772 178.501 83.9216 212.391 91.4778L218.512 72.6588L222.303 92.8788C227.129 93.2216 231.969 93.3034 236.804 93.1236C273.097 91.9662 307.661 93.4623 306.548 80.5985C305.069 63.498 312.683 45.7623 299.574 23.8836Z" fill="#2F2E41"/>
<path d="M255.057 168.475C253.223 166.975 251.769 165.281 250.798 163.511C249.826 161.741 249.36 159.938 249.433 158.23C249.505 156.522 250.115 154.951 251.218 153.625C252.321 152.3 253.892 151.254 255.819 150.561L244.173 74.0013L274.746 74.8955L280.262 157.849C282.599 160.694 283.605 163.799 283.09 166.577C282.575 169.355 280.574 171.613 277.468 172.923C274.361 174.233 270.363 174.503 266.233 173.683C262.102 172.864 258.126 171.01 255.057 168.475Z" fill="#FFB6B6"/>
<path d="M46.783 500.686C56.9064 500.686 65.113 492.581 65.113 482.581C65.113 472.582 56.9064 464.477 46.783 464.477C36.6597 464.477 28.4531 472.582 28.4531 482.581C28.4531 492.581 36.6597 500.686 46.783 500.686Z" fill="#F0F0F0"/>
<path d="M12.8583 503.917C19.9597 503.917 25.7166 498.23 25.7166 491.216C25.7166 484.202 19.9597 478.516 12.8583 478.516C5.75685 478.516 0 484.202 0 491.216C0 498.23 5.75685 503.917 12.8583 503.917Z" fill="#F0F0F0"/>
<path d="M265.196 368.847C303.192 368.847 333.994 361.784 333.994 353.072C333.994 344.36 303.192 337.297 265.196 337.297C227.2 337.297 196.398 344.36 196.398 353.072C196.398 361.784 227.2 368.847 265.196 368.847Z" fill="#3F3D56"/>
<path d="M320.39 510.217L254.049 515.062L254.23 517.482L320.571 512.637L320.39 510.217Z" fill="#CACACA"/>
<path d="M210.508 501.858L209.324 503.984L233.895 517.332L235.079 515.206L210.508 501.858Z" fill="#CACACA"/>
<path d="M279.942 493.211H257.828V495.638H279.942V493.211Z" fill="#CACACA"/>
<path d="M200.081 644.983L197.629 644.818L216.057 366.938L218.509 367.103L200.081 644.983Z" fill="#CACACA"/>
<path d="M290.998 644.954L278.713 388.916L281.167 388.797L293.453 644.835L290.998 644.954Z" fill="#CACACA"/>
<path d="M315.563 365.706L313.113 365.906L336.455 645L338.904 644.801L315.563 365.706Z" fill="#CACACA"/>
<path d="M238.17 644.925L235.713 644.867L243.084 388.828L245.541 388.886L238.17 644.925Z" fill="#CACACA"/>
<path d="M226.411 484.433L210.094 493.978L165.051 436.355L189.135 422.266L226.411 484.433Z" fill="#FFB6B6"/>
<path d="M239.943 497.612L187.328 528.392L186.934 527.735C183.717 522.37 182.79 515.963 184.355 509.923C185.921 503.883 189.852 498.704 195.282 495.527L195.284 495.526L227.419 476.727L239.943 497.612Z" fill="#2F2E41"/>
<path d="M305.213 484.433L321.53 493.978L366.573 436.355L342.49 422.266L305.213 484.433Z" fill="#FFB6B6"/>
<path d="M304.209 476.727L336.344 495.526L336.346 495.527C341.777 498.704 345.707 503.883 347.273 509.923C348.839 515.963 347.911 522.37 344.695 527.735L344.3 528.392L291.686 497.612L304.209 476.727Z" fill="#2F2E41"/>
<path d="M316.425 264.57C316.425 264.57 263.187 301.608 211.365 268.185L210.554 291.484C210.554 291.484 99.5508 337.984 117.773 374.31C135.995 410.636 174.285 448.331 174.285 448.331L195.17 431.342L171.828 373.097L235.321 346.529L290.673 346.804L367.858 377.66L331.002 432.266L363.479 442.264C363.479 442.264 440.877 371.883 424.292 351.861C410.998 335.813 331.422 299.831 331.422 299.831L316.425 264.57Z" fill="#2F2E41"/>
<path d="M334.956 128.687L288.875 113.599L277.485 97.6328H244.315L234.487 113.852L191.758 128.687C189.429 129.345 187.427 130.829 186.138 132.855C184.849 134.881 184.362 137.307 184.773 139.665L203.773 294.212L234.487 291.785C234.487 291.785 275.866 323.677 300.827 286.931L302.16 268.401L327.855 292.999L341.941 139.665C342.352 137.307 341.866 134.881 340.576 132.855C339.287 130.829 337.285 129.345 334.956 128.687Z" fill="#34D399"/>
<path d="M262.127 91.4662C281.804 91.4662 297.755 75.711 297.755 56.2761C297.755 36.8411 281.804 21.0859 262.127 21.0859C242.451 21.0859 226.5 36.8411 226.5 56.2761C226.5 75.711 242.451 91.4662 262.127 91.4662Z" fill="#FFB8B8"/>
<path d="M294.781 20.4807L268.151 6.70312L231.378 12.3396L223.77 45.5312L242.709 44.8116L248 32.6176V44.6114L256.74 44.2789L261.811 24.8649L264.982 45.5312L296.05 44.905L294.781 20.4807Z" fill="#2F2E41"/>
<path opacity="0.2" d="M206.453 162.016L234.095 268.789C234.095 268.789 221.196 175.364 206.453 162.016Z" fill="black"/>
<path opacity="0.2" d="M293.719 200.227C293.719 200.227 277.881 200.381 267.693 197.576C257.504 194.772 231.055 182.977 231.055 182.977C231.055 182.977 276.039 208.683 293.719 200.227Z" fill="black"/>
<path opacity="0.2" d="M288.93 270.015L316.572 163.242C301.829 176.59 288.93 270.015 288.93 270.015Z" fill="black"/>
<path d="M295.367 363.291C296.857 362.514 298.155 361.424 299.172 360.098C300.189 358.772 300.899 357.242 301.252 355.615C301.605 353.989 301.593 352.306 301.217 350.684C300.84 349.063 300.108 347.543 299.072 346.231L324.167 278.44L304.958 268.781L282.182 344.673C280.066 346.538 278.716 349.104 278.388 351.886C278.06 354.668 278.777 357.472 280.402 359.767C282.028 362.062 284.449 363.688 287.207 364.337C289.965 364.987 292.869 364.615 295.367 363.291Z" fill="#FFB6B6"/>
<path d="M319.615 155.336L291.617 275.591C291.347 276.834 291.581 278.132 292.269 279.205C292.957 280.279 294.044 281.044 295.297 281.335L322.26 285.172C322.924 285.326 323.612 285.342 324.283 285.219C324.953 285.096 325.59 284.837 326.153 284.458C326.716 284.079 327.193 283.588 327.554 283.017C327.915 282.446 328.152 281.807 328.249 281.14L336.453 155.861L319.615 155.336Z" fill="#34D399"/>
<path d="M231.34 365.72C229.851 364.944 228.552 363.854 227.536 362.528C226.519 361.202 225.809 359.671 225.456 358.045C225.103 356.419 225.115 354.735 225.491 353.114C225.868 351.493 226.6 349.973 227.636 348.661L202.541 280.87L221.75 271.211L244.526 347.103C246.642 348.967 247.991 351.534 248.319 354.316C248.647 357.097 247.931 359.901 246.305 362.196C244.68 364.491 242.259 366.117 239.501 366.767C236.743 367.417 233.839 367.044 231.34 365.72Z" fill="#FFB6B6"/>
<path d="M207.095 157.781L235.093 278.037C235.363 279.279 235.129 280.577 234.441 281.651C233.753 282.725 232.666 283.489 231.413 283.78L204.45 287.617C203.787 287.772 203.098 287.788 202.428 287.665C201.758 287.542 201.121 287.282 200.557 286.903C199.994 286.524 199.517 286.033 199.156 285.462C198.795 284.891 198.559 284.252 198.461 283.586L187.801 158.307L207.095 157.781Z" fill="#34D399"/>
<path d="M504.138 642.55H0.937342C0.708428 642.55 0.488875 642.678 0.327008 642.905C0.165141 643.133 0.0742188 643.441 0.0742188 643.763C0.0742188 644.085 0.165141 644.394 0.327008 644.621C0.488875 644.849 0.708428 644.977 0.937342 644.977H504.138C504.367 644.977 504.587 644.849 504.749 644.621C504.91 644.394 505.001 644.085 505.001 643.763C505.001 643.441 504.91 643.133 504.749 642.905C504.587 642.678 504.367 642.55 504.138 642.55Z" fill="#E4E4E4"/>
<path d="M440.877 519.348L441.796 518.055C457.565 528.991 469.069 553.318 475.987 590.359C479.149 607.659 481.047 625.163 481.666 642.732L480.066 642.763C480.047 641.787 477.715 544.895 440.877 519.348Z" fill="#E4E4E4"/>
<path d="M443.275 589.262L444.194 587.969C460.632 599.368 461.632 640.611 461.667 642.361L460.067 642.392C460.059 641.971 459.05 600.202 443.275 589.262Z" fill="#E4E4E4"/>
<path d="M438.058 518.802C442.476 518.802 446.057 515.265 446.057 510.901C446.057 506.537 442.476 503 438.058 503C433.64 503 430.059 506.537 430.059 510.901C430.059 515.265 433.64 518.802 438.058 518.802Z" fill="#E4E4E4"/>
<path d="M435.734 587.458C440.151 587.458 443.733 583.921 443.733 579.557C443.733 575.194 440.151 571.656 435.734 571.656C431.316 571.656 427.734 575.194 427.734 579.557C427.734 583.921 431.316 587.458 435.734 587.458Z" fill="#E4E4E4"/>
<path d="M471.653 507.859C474.195 513.493 475.034 519.733 474.068 525.827C473.102 531.921 470.373 537.609 466.209 542.206C463.667 536.572 462.828 530.332 463.794 524.238C464.76 518.144 467.489 512.456 471.653 507.859Z" fill="#E4E4E4"/>
<path d="M422.688 536.777C428.747 535.286 435.114 535.557 441.021 537.558C446.928 539.56 452.123 543.205 455.98 548.056C449.92 549.547 443.554 549.275 437.647 547.274C431.74 545.273 426.545 541.627 422.688 536.777Z" fill="#E4E4E4"/>
<path d="M426.867 600.087C431.114 599.042 435.577 599.232 439.717 600.635C443.858 602.037 447.499 604.593 450.203 607.993C445.955 609.038 441.493 608.847 437.352 607.445C433.212 606.042 429.571 603.487 426.867 600.087Z" fill="#E4E4E4"/>
</svg>
